<?xml version="1.0" encoding="utf-8"?>
<!-- Generator: Adobe Illustrator 15.0.0, SVG Export Plug-In . SVG Version: 6.00 Build 0)  -->
<!DOCTYPE svg PUBLIC "-//W3C//DTD SVG 1.1//EN" "http://www.w3.org/Graphics/SVG/1.1/DTD/svg11.dtd">
<svg version="1.1" id="Layer_1" xmlns="http://www.w3.org/2000/svg" xmlns:xlink="http://www.w3.org/1999/xlink" x="0px" y="0px"
	 width="51px" height="51px" viewBox="0 0 51 51" enable-background="new 0 0 51 51" xml:space="preserve">
<g>
	<path fill-rule="evenodd" clip-rule="evenodd" fill="#FBD2D0" d="M25.499,0.839c-13.658,0-24.732,11.073-24.732,24.735
		c0,10.925,7.086,20.195,16.917,23.466c1.236,0.227,1.688-0.537,1.688-1.192c0-0.587-0.021-2.144-0.033-4.206
		c-6.88,1.493-8.332-3.317-8.332-3.317c-1.125-2.855-2.748-3.615-2.748-3.615c-2.245-1.536,0.17-1.506,0.17-1.506
		c2.484,0.178,3.789,2.55,3.789,2.55c2.206,3.779,5.789,2.687,7.198,2.055c0.224-1.599,0.862-2.688,1.57-3.307
		c-5.492-0.623-11.266-2.746-11.266-12.224c0-2.699,0.964-4.908,2.546-6.637c-0.255-0.625-1.104-3.141,0.242-6.544
		c0,0,2.076-0.666,6.801,2.535c1.974-0.55,4.089-0.824,6.192-0.833c2.1,0.009,4.215,0.284,6.192,0.833
		c4.722-3.201,6.795-2.535,6.795-2.535c1.349,3.404,0.5,5.919,0.245,6.544c1.585,1.729,2.543,3.938,2.543,6.637
		c0,9.501-5.783,11.592-11.292,12.205c0.888,0.763,1.678,2.273,1.678,4.58c0,3.307-0.029,5.975-0.029,6.785
		c0,0.661,0.445,1.431,1.7,1.189c9.819-3.277,16.9-12.541,16.9-23.463C50.233,11.912,39.159,0.839,25.499,0.839"/>
</g>
</svg>
