<?xml version="1.0" encoding="utf-8"?>
<!-- Generator: Adobe Illustrator 15.0.0, SVG Export Plug-In . SVG Version: 6.00 Build 0)  -->
<!DOCTYPE svg PUBLIC "-//W3C//DTD SVG 1.1//EN" "http://www.w3.org/Graphics/SVG/1.1/DTD/svg11.dtd">
<svg version="1.1" id="Layer_1" xmlns="http://www.w3.org/2000/svg" xmlns:xlink="http://www.w3.org/1999/xlink" x="0px" y="0px"
	 width="131.912px" height="119.92px" viewBox="0 0 131.912 119.92" enable-background="new 0 0 131.912 119.92"
	 xml:space="preserve">
<path fill="#99FFFF" d="M65.941,56.967c-0.126-1.044-0.144-2.103-0.143-3.164c0-0.264,0.001-0.529,0.001-0.795
	c0.002-0.792,0.002-1.587-0.041-2.378c-0.196-3.672-1.205-5.137-4.1-6.095c0.109-0.306,0.23-0.6,0.363-0.883
	c0.263-0.566,0.57-1.086,0.928-1.55c0.111-0.146,0.228-0.284,0.351-0.419c0.213-0.235,0.443-0.453,0.688-0.652
	c0.186-0.148,0.378-0.287,0.583-0.415c0.614-0.382,1.316-0.665,2.126-0.831c4.399-0.905,7.823,0.889,10.581,4.136
	c0.329,0.388,0.638,0.783,0.939,1.185l7.063-16.936h0.172l4.7,37.096h16.753l-9.745-64.45H80.495L66.648,35.262L53.569,0.814H37.073
	l-10.94,64.45h16.667l5.385-37.096h0.171l14.788,37.096h5.694c-0.186-0.304-0.365-0.613-0.535-0.928
	c-0.819-1.479-1.455-3.096-1.887-4.822C66.21,58.69,66.046,57.845,65.941,56.967 M63.88,48.867
	c-0.287,0.793-0.527,1.604-0.791,2.408c-2.022-1.16-2.363-3.068-1.655-6.074C63.281,45.556,64.553,47.003,63.88,48.867"/>
<polygon fill="#99FFFF" points="32.778,77.36 37.152,89.953 37.202,89.953 41.652,77.36 47.974,77.36 47.974,77.716 45.647,77.716 
	45.647,95.01 47.974,95.01 47.974,95.363 39.68,95.363 39.68,95.01 41.981,95.01 41.981,77.716 41.93,77.716 35.711,95.363 
	35.306,95.363 29.062,77.716 29.01,77.716 29.01,95.01 31.336,95.01 31.336,95.363 26.279,95.363 26.279,95.01 28.605,95.01 
	28.605,77.716 26.279,77.716 26.279,77.36 "/>
<path fill="#99FFFF" d="M58.998,77.36v0.355h-2.326v11.352c0,0.793,0.038,1.562,0.114,2.314c0.075,0.75,0.253,1.419,0.53,2.01
	c0.278,0.589,0.691,1.065,1.24,1.427c0.547,0.364,1.284,0.545,2.212,0.545c0.91,0,1.674-0.105,2.288-0.315
	c0.615-0.212,1.126-0.489,1.529-0.835c0.405-0.345,0.718-0.733,0.935-1.164c0.221-0.429,0.382-0.858,0.481-1.289
	c0.101-0.43,0.161-0.833,0.178-1.214c0.017-0.379,0.024-0.694,0.024-0.947V77.716h-2.301V77.36h5.057v0.355h-2.351v11.858
	c0,0.27-0.009,0.61-0.025,1.022c-0.017,0.413-0.086,0.847-0.203,1.302c-0.117,0.456-0.294,0.911-0.53,1.367
	c-0.237,0.455-0.582,0.862-1.037,1.226c-0.454,0.362-1.027,0.658-1.72,0.886c-0.69,0.227-1.541,0.341-2.553,0.341
	c-1.635,0-2.95-0.183-3.945-0.545c-0.996-0.362-1.757-0.832-2.289-1.415c-0.53-0.582-0.88-1.242-1.049-1.984
	c-0.169-0.743-0.253-1.494-0.253-2.251V77.716h-2.351V77.36H58.998z"/>
<path fill="#99FFFF" d="M76.696,77.716c-0.622,0-1.178,0.061-1.667,0.187c-0.489,0.128-0.927,0.349-1.315,0.66
	c-0.387,0.311-0.732,0.745-1.035,1.301c-0.305,0.556-0.583,1.266-0.835,2.125h-0.329V77.36h15.853v4.628h-0.328
	c-0.254-0.859-0.531-1.569-0.834-2.125c-0.304-0.556-0.649-0.99-1.037-1.301c-0.387-0.312-0.826-0.532-1.315-0.66
	c-0.488-0.126-1.045-0.187-1.669-0.187h-0.909v17.293H83.6v0.354h-8.32v-0.354h2.328V77.716H76.696z"/>
<path fill="#99FFFF" d="M105.42,77.36v4.323h-0.329c-0.083-0.286-0.228-0.652-0.429-1.101c-0.202-0.444-0.485-0.879-0.847-1.3
	c-0.364-0.423-0.831-0.789-1.405-1.101c-0.574-0.312-1.273-0.467-2.1-0.467h-4.02v7.812h1.416c0.623,0,1.15-0.087,1.581-0.266
	c0.429-0.177,0.786-0.429,1.074-0.758c0.287-0.329,0.522-0.725,0.706-1.188c0.187-0.463,0.34-0.981,0.458-1.556h0.328v7.863h-0.328
	c-0.118-0.486-0.258-0.96-0.418-1.417c-0.16-0.454-0.375-0.854-0.645-1.199c-0.271-0.347-0.603-0.619-0.999-0.822
	c-0.395-0.202-0.889-0.303-1.479-0.303h-1.695v9.128h4.147c0.774,0,1.475-0.132,2.1-0.392c0.623-0.263,1.175-0.628,1.655-1.101
	c0.48-0.471,0.881-1.024,1.201-1.657c0.319-0.632,0.563-1.311,0.732-2.035h0.329v5.538H90.299V95.01h2.327V77.716h-2.327V77.36
	H105.42z"/>
<path fill="#99FFFF" d="M19.466,119.024v0.355h-8.319v-0.355h2.326v-17.293h-2.326v-0.355h2.326c0.859,0,1.719-0.012,2.579-0.036
	c0.86-0.027,1.719-0.039,2.579-0.039c0.758,0,1.576,0.063,2.453,0.189c0.877,0.128,1.685,0.363,2.427,0.708
	c0.742,0.346,1.361,0.826,1.859,1.442c0.498,0.615,0.746,1.411,0.746,2.388c0,0.658-0.161,1.277-0.48,1.859
	c-0.32,0.58-0.808,1.087-1.466,1.518c-0.658,0.429-1.484,0.77-2.478,1.022c-0.995,0.253-2.166,0.379-3.515,0.379H17.14v8.218H19.466
	z M17.923,110.454c1.432,0,2.468-0.326,3.11-0.975c0.64-0.648,0.96-1.748,0.96-3.298c0-1.469-0.278-2.588-0.834-3.363
	c-0.557-0.777-1.568-1.164-3.035-1.164c-0.185,0-0.362,0.01-0.531,0.025c-0.168,0.017-0.321,0.035-0.455,0.052v8.723H17.923z"/>
<path fill="#99FFFF" d="M26.368,119.024l7.535-18.354h0.683l7.965,18.354h2.173v0.354h-8.495v-0.354h2.353l-2.935-6.775H29.58
	l-2.807,6.775h2.25v0.354h-4.778v-0.354H26.368z M29.706,111.895h5.816l-2.984-6.902L29.706,111.895z"/>
<path fill="#99FFFF" d="M46.975,101.731v-0.355h3.818c0.708,0,1.408-0.013,2.099-0.036c0.69-0.027,1.391-0.039,2.099-0.039
	c0.657,0,1.353,0.067,2.087,0.202c0.732,0.135,1.401,0.367,2.009,0.695c0.606,0.328,1.109,0.771,1.504,1.328
	c0.396,0.556,0.596,1.256,0.596,2.097c0,0.675-0.152,1.255-0.457,1.733c-0.303,0.481-0.694,0.873-1.175,1.176
	c-0.48,0.305-1.016,0.536-1.605,0.695c-0.59,0.16-1.172,0.266-1.745,0.315v0.128c0.826,0.15,1.563,0.303,2.213,0.453
	c0.649,0.152,1.209,0.381,1.681,0.685c0.473,0.303,0.847,0.724,1.125,1.264c0.279,0.54,0.452,1.265,0.518,2.175
	c0.086,1.061,0.152,1.912,0.204,2.553c0.049,0.641,0.12,1.139,0.215,1.491c0.091,0.354,0.219,0.592,0.378,0.709
	c0.161,0.119,0.392,0.176,0.696,0.176c0.336,0,0.614-0.096,0.833-0.29c0.221-0.193,0.414-0.373,0.582-0.543l0.254,0.228
	c-0.169,0.168-0.334,0.325-0.493,0.468c-0.16,0.143-0.346,0.265-0.557,0.368c-0.21,0.099-0.468,0.179-0.771,0.238
	c-0.305,0.06-0.683,0.089-1.138,0.089c-0.928,0-1.652-0.148-2.175-0.442c-0.523-0.293-0.91-0.661-1.163-1.1s-0.41-0.915-0.468-1.429
	c-0.06-0.514-0.097-1-0.114-1.455c-0.034-0.689-0.08-1.358-0.139-2.01c-0.06-0.647-0.198-1.226-0.417-1.731
	c-0.219-0.507-0.548-0.911-0.986-1.215c-0.438-0.302-1.055-0.455-1.846-0.455h-1.668v9.128h2.326v0.355h-8.319v-0.355H49.3v-17.293
	H46.975z M54.004,109.543c0.758,0,1.356-0.101,1.794-0.303c0.439-0.202,0.768-0.475,0.987-0.823
	c0.219-0.346,0.357-0.735,0.417-1.175c0.06-0.438,0.088-0.884,0.088-1.34c0-0.741-0.05-1.377-0.151-1.909
	c-0.101-0.529-0.271-0.969-0.505-1.313c-0.236-0.345-0.562-0.604-0.975-0.772c-0.413-0.17-0.939-0.253-1.58-0.253
	c-0.186,0-0.371,0.008-0.556,0.025c-0.186,0.018-0.372,0.034-0.556,0.052v7.812H54.004z"/>
<path fill="#99FFFF" d="M66.747,101.731v-0.355h3.818c0.707,0,1.407-0.013,2.1-0.036c0.689-0.027,1.391-0.039,2.098-0.039
	c0.657,0,1.355,0.067,2.086,0.202c0.734,0.135,1.404,0.367,2.012,0.695c0.605,0.328,1.105,0.771,1.503,1.328
	c0.396,0.556,0.595,1.256,0.595,2.097c0,0.675-0.151,1.255-0.456,1.733c-0.302,0.481-0.693,0.873-1.176,1.176
	c-0.479,0.305-1.016,0.536-1.604,0.695c-0.59,0.16-1.171,0.266-1.746,0.315v0.128c0.827,0.15,1.564,0.303,2.215,0.453
	c0.646,0.152,1.207,0.381,1.682,0.685c0.47,0.303,0.846,0.724,1.124,1.264s0.45,1.265,0.518,2.175
	c0.085,1.061,0.152,1.912,0.2,2.553c0.052,0.641,0.124,1.139,0.217,1.491c0.093,0.354,0.22,0.592,0.381,0.709
	c0.16,0.119,0.392,0.176,0.693,0.176c0.339,0,0.617-0.096,0.834-0.29c0.221-0.193,0.415-0.373,0.582-0.543l0.254,0.228
	c-0.167,0.168-0.335,0.325-0.492,0.468c-0.162,0.143-0.348,0.265-0.557,0.368c-0.212,0.099-0.469,0.179-0.771,0.238
	c-0.305,0.06-0.683,0.089-1.141,0.089c-0.924,0-1.65-0.148-2.173-0.442c-0.521-0.293-0.91-0.661-1.164-1.1
	c-0.25-0.438-0.407-0.915-0.468-1.429c-0.059-0.514-0.094-1-0.11-1.455c-0.035-0.689-0.081-1.358-0.142-2.01
	c-0.059-0.647-0.197-1.226-0.416-1.731c-0.22-0.507-0.548-0.911-0.986-1.215c-0.439-0.302-1.054-0.455-1.846-0.455h-1.668v9.128
	h2.325v0.355h-8.319v-0.355h2.326v-17.293H66.747z M73.777,109.543c0.758,0,1.356-0.101,1.795-0.303s0.767-0.475,0.985-0.823
	c0.219-0.346,0.36-0.735,0.417-1.175c0.06-0.438,0.089-0.884,0.089-1.34c0-0.741-0.052-1.377-0.15-1.909
	c-0.102-0.529-0.271-0.969-0.507-1.313c-0.235-0.345-0.561-0.604-0.974-0.772c-0.414-0.17-0.939-0.253-1.579-0.253
	c-0.187,0-0.372,0.008-0.557,0.025s-0.37,0.034-0.556,0.052v7.812H73.777z"/>
<path fill="#99FFFF" d="M85.041,106.534c0.581-1.162,1.325-2.157,2.236-2.982c0.91-0.825,1.931-1.464,3.061-1.91
	c1.129-0.445,2.232-0.669,3.312-0.669c1.164,0,2.314,0.218,3.452,0.657c1.137,0.438,2.148,1.062,3.034,1.871
	c0.884,0.809,1.601,1.792,2.149,2.945c0.548,1.154,0.821,2.457,0.821,3.906c0,1.266-0.257,2.466-0.772,3.603
	c-0.513,1.139-1.203,2.138-2.073,2.997c-0.867,0.86-1.872,1.537-3.008,2.036c-1.139,0.496-2.338,0.745-3.604,0.745
	c-1.248,0-2.444-0.239-3.59-0.721s-2.154-1.139-3.022-1.973c-0.867-0.833-1.562-1.815-2.085-2.945
	c-0.524-1.13-0.783-2.352-0.783-3.667C84.168,108.995,84.458,107.698,85.041,106.534 M88.592,114.79
	c0.203,1.155,0.52,2.073,0.947,2.755c0.432,0.685,0.987,1.159,1.669,1.43c0.685,0.27,1.496,0.405,2.44,0.405
	c1.248,0,2.227-0.232,2.933-0.695c0.708-0.465,1.24-1.104,1.594-1.923c0.353-0.816,0.577-1.786,0.671-2.906
	c0.093-1.123,0.14-2.34,0.14-3.655c0-1.18-0.04-2.304-0.114-3.375c-0.077-1.07-0.292-2.014-0.645-2.833
	c-0.356-0.816-0.892-1.466-1.608-1.945c-0.716-0.479-1.704-0.722-2.97-0.722c-1.179,0-2.126,0.225-2.832,0.67
	c-0.707,0.448-1.247,1.075-1.619,1.884c-0.368,0.81-0.614,1.771-0.732,2.883c-0.118,1.113-0.176,2.336-0.176,3.666
	C88.29,112.183,88.392,113.635,88.592,114.79"/>
<path fill="#99FFFF" d="M111.095,101.731c-0.623,0-1.181,0.062-1.668,0.188c-0.489,0.128-0.927,0.347-1.313,0.658
	c-0.389,0.313-0.733,0.747-1.04,1.303c-0.301,0.556-0.58,1.265-0.833,2.124h-0.328v-4.628h15.854v4.628h-0.327
	c-0.255-0.859-0.533-1.568-0.836-2.124c-0.304-0.556-0.648-0.989-1.038-1.303c-0.389-0.312-0.826-0.53-1.315-0.658
	c-0.486-0.125-1.044-0.188-1.667-0.188h-0.912v17.293h2.328v0.355h-8.319v-0.355h2.327v-17.293H111.095z"/>
</svg>
