<?xml version="1.0" encoding="utf-8"?>
<!-- Generator: Adobe Illustrator 15.0.0, SVG Export Plug-In . SVG Version: 6.00 Build 0)  -->
<!DOCTYPE svg PUBLIC "-//W3C//DTD SVG 1.1//EN" "http://www.w3.org/Graphics/SVG/1.1/DTD/svg11.dtd">
<svg version="1.1" id="Layer_1" xmlns="http://www.w3.org/2000/svg" xmlns:xlink="http://www.w3.org/1999/xlink" x="0px" y="0px"
	 width="190px" height="190px" viewBox="0 0 190 190" enable-background="new 0 0 190 190" xml:space="preserve">
<g>
	<polygon points="92.871,103.174 92.028,101.906 92.95,101.102 96.995,93.557 79.078,100.218 56.532,108.812 55.745,109.113 
		52.463,110.363 42.035,114.703 46,151.358 109.845,186.55 107.128,171.361 95.237,106.711 	"/>
	<polygon points="46.337,171.412 40.693,118.936 34.328,142.775 	"/>
	<polygon points="33.23,139.73 40.204,113.876 40.264,113.878 40.198,113.253 40.801,113.024 51.811,108.827 55.011,107.494 
		30.779,54.144 1.428,67.705 11.193,89.968 26.196,119.496 	"/>
	<polygon points="51.811,108.827 40.801,113.024 40.198,113.253 40.264,113.878 40.313,113.882 40.396,113.58 	"/>
	<polygon points="40.204,113.876 33.23,139.73 33.333,140.022 40.281,114.011 40.266,113.878 	"/>
	<polygon points="40.281,114.011 40.313,113.882 40.266,113.878 	"/>
	<polygon points="99.85,91.941 95.759,99.713 158.768,67.677 143.827,36.801 143.965,36.564 137.005,22.451 103.116,85.666 
		99.737,92.4 	"/>
	<polygon points="95.759,99.713 99.85,91.941 99.415,92.655 99.359,92.675 95.524,99.834 	"/>
	<polygon points="159.496,69.184 95.692,101.906 142.848,115.772 142.807,115.889 178.554,126.234 182.856,110.907 160.52,69.967 	
		"/>
	<polygon points="184.181,113.447 180.622,125.206 188.116,121.01 	"/>
	<polygon points="183.983,113.064 180.571,125.231 180.622,125.206 184.183,113.447 	"/>
	<polygon points="145.855,36.629 159.449,64.208 166.007,1.871 	"/>
	<polygon points="145.713,36.869 159.359,65.065 159.449,64.208 145.855,36.629 	"/>
	<polygon points="96.327,104.532 96.457,104.482 126.246,149.737 128.549,143.838 131.517,142.219 140.635,116.997 96.068,104.101 	
		"/>
	<polygon points="95.899,104.704 96.327,104.532 96.068,104.101 95.36,103.896 	"/>
	<polygon points="140.635,116.997 140.675,116.874 95.818,103.684 96.068,104.101 	"/>
	<polygon points="95.36,103.896 96.07,104.101 95.816,103.684 95.073,103.464 	"/>
	<polygon points="125.407,151.908 97.987,110.833 108.732,170.859 111.45,185.643 117.182,172.122 114.845,171.435 	"/>
	<polygon points="97.578,110.223 108.732,170.859 97.987,110.833 	"/>
	<polygon points="125.407,151.908 125.506,151.728 125.573,151.751 97.742,109.471 97.987,110.833 	"/>
	<polygon points="97.578,110.223 97.987,110.833 97.742,109.471 97.323,108.831 	"/>
	<polygon points="117.839,170.574 120.122,165.184 117.291,170.414 	"/>
	<polygon points="114.845,171.435 117.184,172.122 117.508,171.35 116.071,170.926 123.558,157.08 125.617,152.222 125.407,151.908 
			"/>
	<polygon points="125.407,151.908 125.617,152.222 125.722,151.977 125.575,151.751 125.506,151.728 	"/>
	<polygon points="117.508,171.35 117.839,170.574 117.291,170.414 120.122,165.184 123.558,157.08 116.071,170.926 	"/>
	<polygon points="8.854,89.047 4.724,91.085 26.462,128.929 9.676,90.668 	"/>
	<polygon points="24.662,120.144 22.973,116.822 25.547,122.683 	"/>
	<polygon points="9.676,90.668 26.462,128.931 29.63,134.439 29.011,132.666 16.328,103.747 	"/>
	<polygon points="22.973,116.822 16.326,103.743 29.011,132.666 25.547,122.683 	"/>
	<polygon points="58.415,102.863 36.242,61.333 56.166,105.968 	"/>
	<polygon points="56.154,105.979 56.166,105.968 36.242,61.331 33.786,56.728 	"/>
	<polygon points="98.313,91.097 99.548,88.79 60.136,103.633 58.404,106.122 78.522,98.642 	"/>
	<polygon points="78.522,98.642 98.186,91.332 98.313,91.097 	"/>
	<polygon points="98.442,91.048 99.886,88.663 99.548,88.79 98.313,91.097 	"/>
	<polygon points="98.313,91.097 98.186,91.332 98.292,91.293 98.442,91.048 	"/>
	<polygon points="59.835,103.743 58.007,106.269 58.404,106.122 60.138,103.633 	"/>
	<polygon points="29.739,51.856 6.742,40.895 1.586,65.471 29.751,51.875 	"/>
	<polygon points="1.586,65.471 1.511,65.829 30.087,52.625 29.751,51.875 	"/>
	<polygon points="29.751,51.875 29.767,51.868 29.739,51.856 	"/>
	<polygon points="29.751,51.875 30.089,52.625 30.729,52.331 29.767,51.868 	"/>
</g>
</svg>
