<?xml version="1.0" encoding="utf-8"?>
<!-- Generator: Adobe Illustrator 15.0.0, SVG Export Plug-In . SVG Version: 6.00 Build 0)  -->
<!DOCTYPE svg PUBLIC "-//W3C//DTD SVG 1.1//EN" "http://www.w3.org/Graphics/SVG/1.1/DTD/svg11.dtd">
<svg version="1.1" xmlns="http://www.w3.org/2000/svg" xmlns:xlink="http://www.w3.org/1999/xlink" x="0px" y="0px" width="160px"
	 height="52.348px" viewBox="469.036 624.746 160 52.348" enable-background="new 469.036 624.746 160 52.348" xml:space="preserve"
	>
<g id="Layer_1">
	<path d="M629.16,670.021c0,3.907-3.164,7.073-7.072,7.073H476.211c-3.906,0-7.073-3.166-7.073-7.073v-38.195
		c0-3.908,3.168-7.076,7.073-7.076h145.875c3.909,0,7.072,3.168,7.072,7.076L629.16,670.021L629.16,670.021z"/>
</g>
<g id="Layer_2">
	<path fill="#99FFFF" d="M480.547,636.012v16.225v16.56c0,0.701,0.551,1.002,1.222,0.615c0.674-0.39,14.259-8.233,14.259-8.233
		l7.224-4.173c0,0,6.134-3.539,6.947-4.009c0.815-0.469,0.735-1.116,0.048-1.485c-0.688-0.37-6.995-4.038-6.995-4.038l-7.224-4.173
		c0,0-13.164-7.599-13.937-8.049c-0.244-0.14-0.487-0.211-0.708-0.211C480.907,635.044,480.547,635.373,480.547,636.012"/>
	<path fill="#99FFFF" d="M590.722,656.934c-0.483-0.623-0.726-1.663-0.726-3.116v-0.346c0.014-1.278,0.253-2.205,0.726-2.789
		c0.47-0.585,1.234-0.875,2.289-0.875c0.916,0,1.628,0.343,2.134,1.028c0.506,0.691,0.762,1.678,0.762,2.966
		c0,1.27-0.256,2.265-0.762,2.985c-0.506,0.722-1.203,1.085-2.095,1.085C591.98,657.872,591.206,657.554,590.722,656.934
		 M591.402,648.854c-0.534,0.254-1.002,0.662-1.405,1.226h-0.073l-0.219-1.415h-1.271v14.961h1.563v-4.251
		c0-0.537-0.037-1.112-0.112-1.71h0.112c0.378,0.511,0.845,0.894,1.401,1.143c0.555,0.246,1.168,0.37,1.839,0.37
		c1.345,0,2.396-0.47,3.153-1.409c0.758-0.938,1.135-2.257,1.135-3.952c0-1.688-0.375-3.002-1.116-3.936
		c-0.746-0.936-1.801-1.402-3.172-1.402C592.549,648.479,591.935,648.604,591.402,648.854"/>
	<rect x="599.58" y="644.335" fill="#99FFFF" width="1.566" height="14.653"/>
	<path fill="#99FFFF" d="M605.164,657.446c-0.344-0.298-0.513-0.726-0.513-1.29c0-0.724,0.271-1.256,0.819-1.598
		c0.553-0.342,1.449-0.536,2.691-0.579l1.563-0.067v0.935c0,0.961-0.281,1.708-0.831,2.241c-0.56,0.535-1.323,0.8-2.296,0.8
		C605.986,657.888,605.507,657.741,605.164,657.446 M605.842,648.732c-0.607,0.157-1.164,0.376-1.673,0.649l0.482,1.197
		c1.085-0.526,2.059-0.79,2.919-0.79c0.766,0,1.325,0.192,1.671,0.58c0.349,0.381,0.522,0.983,0.522,1.792v0.645l-1.75,0.053
		c-3.336,0.103-5.003,1.197-5.003,3.279c0,0.973,0.29,1.723,0.871,2.25c0.58,0.53,1.384,0.792,2.408,0.792
		c0.765,0,1.403-0.116,1.915-0.344c0.511-0.229,1.024-0.667,1.54-1.312h0.075l0.312,1.467h1.157v-7.045
		c0-1.206-0.299-2.08-0.89-2.629c-0.596-0.546-1.503-0.819-2.735-0.819C607.057,648.496,606.445,648.577,605.842,648.732"/>
	<path fill="#99FFFF" d="M620.206,648.667c-1.445,3.993-2.297,6.377-2.561,7.155c-0.258,0.775-0.431,1.321-0.514,1.643h-0.072
		c-0.122-0.596-0.431-1.566-0.926-2.91l-2.258-5.887h-1.679l4.165,10.381l-0.574,1.468c-0.459,1.209-1.227,1.812-2.299,1.812
		c-0.428,0-0.813-0.038-1.158-0.114v1.255c0.464,0.104,0.933,0.158,1.411,0.158c0.855,0,1.575-0.244,2.162-0.73
		c0.59-0.486,1.1-1.311,1.542-2.474l4.438-11.756L620.206,648.667L620.206,648.667z"/>
	<path fill="#99FFFF" d="M558.121,661.761c0-1.531,1.38-2.049,1.856-2.223c0.905-0.302,2.072-0.348,2.266-0.348
		c0.216,0,0.323,0,0.497,0.024c1.643,1.164,2.353,1.748,2.353,2.851c0,1.337-1.104,2.333-3.173,2.333
		C559.61,664.397,558.121,663.295,558.121,661.761 M559.199,651.872c0-0.561,0.107-1.142,0.472-1.599
		c0.349-0.429,0.951-0.712,1.517-0.712c1.789,0,2.716,2.417,2.716,3.975c0,0.387-0.044,1.077-0.537,1.576
		c-0.346,0.343-0.93,0.604-1.468,0.604C560.04,655.717,559.199,653.319,559.199,651.872 M562.546,648.848
		c-1.167,0-2.636,0.175-3.865,1.188c-0.928,0.799-1.38,1.9-1.38,2.893c0,1.685,1.293,3.393,3.582,3.393
		c0.216,0,0.452-0.022,0.691-0.043c-0.107,0.258-0.219,0.476-0.219,0.842c0,0.667,0.347,1.076,0.652,1.464
		c-0.973,0.067-2.789,0.176-4.125,0.995c-1.274,0.758-1.664,1.856-1.664,2.634c0,1.599,1.513,3.086,4.645,3.086
		c3.713,0,5.678-2.049,5.678-4.077c0-1.49-0.863-2.227-1.812-3.026l-0.777-0.601c-0.238-0.198-0.562-0.454-0.562-0.931
		c0-0.478,0.323-0.777,0.604-1.058c0.907-0.712,1.817-1.47,1.817-3.065c0-1.643-1.039-2.505-1.534-2.917h1.337l1.383-0.778h-4.449
		V648.848z"/>
	<path fill="#99FFFF" d="M547.51,652.573c0-0.928,0.151-1.875,0.992-2.631c0.518-0.452,1.227-0.73,1.94-0.73
		c2.674,0,3.579,3.618,3.579,5.519c0,0.838-0.128,1.703-0.647,2.392c-0.496,0.692-1.358,1.099-2.197,1.099
		C548.567,658.222,547.51,654.708,547.51,652.573 M545.42,653.781c0,2.414,1.832,5.086,5.257,5.086c3.518,0,5.479-2.695,5.479-5.234
		c0-2.613-1.983-5.091-5.151-5.091C547.728,648.542,545.42,650.954,545.42,653.781"/>
	<path fill="#99FFFF" d="M535.827,652.573c0-0.928,0.148-1.875,0.992-2.631c0.518-0.452,1.229-0.73,1.94-0.73
		c2.674,0,3.579,3.618,3.579,5.519c0,0.838-0.13,1.703-0.647,2.392c-0.497,0.692-1.357,1.099-2.199,1.099
		C536.883,658.222,535.827,654.708,535.827,652.573 M533.735,653.781c0,2.414,1.833,5.086,5.259,5.086
		c3.516,0,5.477-2.695,5.477-5.234c0-2.613-1.984-5.091-5.15-5.091C536.043,648.542,533.735,650.954,533.735,653.781"/>
	<path fill="#99FFFF" d="M517.155,651.77c0,3.446,2.276,7.843,8.258,7.843c1.192,0,2.319-0.171,3.575-0.365l3.101-0.716v-2.645
		c0-0.22,0.02-0.847,0.043-1.04c0.044-0.171,0.063-0.217,0.215-0.348l0.565-0.541h-4.595l-1.733,0.932l3.272-0.172v3.49
		c-0.653,0.257-1.365,0.539-2.753,0.539c-4.724,0-7.672-3.838-7.672-7.911c0-3.789,2.581-6.394,6.004-6.394
		c2.555,0,3.902,1.322,4.638,2.039l-0.542,0.866l0.759-0.176l1.799-1.711c-0.479-0.324-1.236-0.889-2.862-1.342
		c-1.017-0.285-2.144-0.458-3.317-0.458C520.385,643.66,517.155,647.563,517.155,651.77"/>
	<path fill="#99FFFF" d="M568.146,643.179l-1.627,0.78h1.657v0.012v-0.009v12.665v0.716c0,0.433-0.086,0.498-0.586,1.148h3.835
		l0.801-0.477c-0.365-0.045-0.735-0.065-1.104-0.109c-0.716-0.064-0.866-0.194-0.866-1.039v-0.239v-12.026
		c0.004-0.05,0.007-0.097,0.011-0.142c0.088-0.76,0.306-0.89,0.979-1.28H568.146z"/>
	<path fill="#99FFFF" d="M573.937,652.25c0-2.324,1.612-2.992,2.474-2.992c1.166,0,2.133,0.99,2.133,1.854
		c0,0.298-0.214,0.427-0.621,0.58l-3.918,1.7C573.98,653.003,573.937,652.615,573.937,652.25 M572.086,653.52
		c0,1.616,0.665,3.467,2.195,4.541c1.098,0.795,2.174,0.841,2.862,0.841c0.646,0,1.379-0.085,2.091-0.409
		c0.234-0.106,0.473-0.256,0.709-0.386l1.14-1.078c-0.729,0.367-1.527,0.753-2.625,0.753c-2.047,0-3.896-1.594-4.433-4.326
		l1.655-0.129l5.058-2.043c-0.148-0.495-0.43-1.42-1.504-2.131c-0.646-0.409-1.444-0.604-2.218-0.604
		C574.8,648.549,572.086,650.185,572.086,653.52"/>
	<polygon fill="#99FFFF" points="581.377,648.549 581.377,648.696 581.849,648.696 581.849,650.118 582.021,650.118 
		582.021,648.696 582.489,648.696 582.489,648.549 	"/>
	<polygon fill="#99FFFF" points="583.838,648.549 583.446,649.813 583.438,649.813 583.042,648.549 582.773,648.549 
		582.773,650.118 582.931,650.118 582.931,648.682 582.933,648.682 583.378,650.118 583.511,650.118 583.95,648.682 
		583.959,648.682 583.959,650.118 584.111,650.118 584.111,648.549 	"/>
	<g>
		<g>
			<defs>
				<path id="SVGID_1_" d="M519.276,635.665h0.054c0,0.091,0.19,0.72,0.575,1.877h-1.224
					C519.079,636.376,519.276,635.752,519.276,635.665 M518.765,635.061c0,0.138-0.261,0.878-0.786,2.227
					c-0.524,1.35-0.786,2.066-0.786,2.152h1.014c0-0.155,0.105-0.578,0.315-1.257h1.556c0.205,0.692,0.307,1.111,0.307,1.257h1.076
					c0-0.12-0.237-0.849-0.713-2.184c-0.472-1.333-0.711-2.067-0.711-2.195H518.765z"/>
			</defs>
			<use xlink:href="#SVGID_1_"  overflow="visible" fill="#99FFFF"/>
			<clipPath id="SVGID_2_">
				<use xlink:href="#SVGID_1_"  overflow="visible"/>
			</clipPath>
			<rect x="517.192" y="635.061" clip-path="url(#SVGID_2_)" fill="#99FFFF" width="4.268" height="4.381"/>
		</g>
	</g>
	<g>
		<g>
			<defs>
				<path id="SVGID_3_" d="M524.958,635.061c0.032,0.642,0.046,1.263,0.046,1.87c0,0.398,0.028,0.845,0.082,1.348h-0.052
					c-0.086-0.315-0.425-0.912-1.015-1.793c-0.555-0.831-0.832-1.303-0.832-1.425h-0.999c0.034,0.575,0.05,1.27,0.05,2.09
					c0,0.833-0.017,1.597-0.05,2.289h0.827c-0.031-0.793-0.046-1.471-0.046-2.024c0-0.394-0.029-0.84-0.084-1.332h0.054
					c0.09,0.341,0.457,0.977,1.104,1.904c0.616,0.876,0.925,1.36,0.925,1.452h0.832c-0.031-0.685-0.048-1.448-0.048-2.29
					c0-0.837,0.017-1.531,0.048-2.09L524.958,635.061L524.958,635.061z"/>
			</defs>
			<use xlink:href="#SVGID_3_"  overflow="visible" fill="#99FFFF"/>
			<clipPath id="SVGID_4_">
				<use xlink:href="#SVGID_3_"  overflow="visible"/>
			</clipPath>
			<rect x="522.188" y="635.061" clip-path="url(#SVGID_4_)" fill="#99FFFF" width="3.612" height="4.379"/>
		</g>
	</g>
	<g>
		<g>
			<defs>
				<path id="SVGID_5_" d="M527.9,638.744c-0.023-0.525-0.034-1.059-0.034-1.595c0-0.489-0.01-0.955-0.032-1.404
					c0.168-0.022,0.298-0.03,0.396-0.03c0.516,0,0.9,0.148,1.152,0.442c0.25,0.293,0.376,0.657,0.376,1.09
					c0,0.429-0.117,0.797-0.349,1.094c-0.231,0.299-0.589,0.45-1.071,0.45C528.193,638.789,528.045,638.775,527.9,638.744
					 M527.996,635.05c-0.193,0.007-0.336,0.011-0.431,0.011h-0.59c0.026,0.577,0.044,1.271,0.044,2.09
					c0,0.854-0.019,1.615-0.044,2.289c0.584,0.028,1.039,0.043,1.374,0.043c0.735,0,1.31-0.238,1.716-0.713
					c0.406-0.476,0.613-1.032,0.613-1.672c0-0.565-0.181-1.047-0.547-1.451c-0.364-0.407-0.952-0.608-1.762-0.608
					C528.31,635.039,528.187,635.044,527.996,635.05"/>
			</defs>
			<use xlink:href="#SVGID_5_"  overflow="visible" fill="#99FFFF"/>
			<clipPath id="SVGID_6_">
				<use xlink:href="#SVGID_5_"  overflow="visible"/>
			</clipPath>
			<rect x="526.975" y="635.039" clip-path="url(#SVGID_6_)" fill="#99FFFF" width="3.703" height="4.443"/>
		</g>
	</g>
	<g>
		<g>
			<defs>
				<path id="SVGID_7_" d="M532.532,637.081c0-0.559-0.014-1.01-0.039-1.358c0.161-0.03,0.346-0.046,0.559-0.046
					c0.574,0,0.862,0.228,0.862,0.668c0,0.496-0.354,0.741-1.072,0.741C532.759,637.086,532.653,637.086,532.532,637.081
					 M532.634,635.05c-0.216,0.007-0.358,0.011-0.424,0.011h-0.582c0.03,0.577,0.044,1.271,0.044,2.09
					c0,0.854-0.014,1.615-0.044,2.289h0.937c-0.022-0.587-0.031-1.168-0.031-1.742c0.119-0.005,0.244-0.007,0.374-0.007
					c0.31,0,0.533,0.096,0.672,0.28c0.139,0.187,0.337,0.678,0.599,1.469h0.999c-0.291-0.769-0.52-1.302-0.691-1.595
					c-0.172-0.291-0.369-0.465-0.595-0.529v-0.051c0.585-0.223,0.88-0.609,0.88-1.168c0-0.703-0.517-1.058-1.544-1.058
					C533.045,635.039,532.848,635.044,532.634,635.05"/>
			</defs>
			<use xlink:href="#SVGID_7_"  overflow="visible" fill="#99FFFF"/>
			<clipPath id="SVGID_8_">
				<use xlink:href="#SVGID_7_"  overflow="visible"/>
			</clipPath>
			<rect x="531.628" y="635.039" clip-path="url(#SVGID_8_)" fill="#99FFFF" width="3.55" height="4.4"/>
		</g>
	</g>
	<g>
		<g>
			<defs>
				<path id="SVGID_9_" d="M537.005,638.383c-0.241-0.288-0.36-0.67-0.36-1.137c0-0.449,0.114-0.822,0.342-1.116
					c0.229-0.294,0.51-0.438,0.836-0.438c0.35,0,0.647,0.145,0.886,0.437c0.241,0.29,0.361,0.669,0.361,1.139
					c0,0.447-0.117,0.819-0.342,1.112c-0.231,0.297-0.507,0.444-0.837,0.444C537.543,638.824,537.249,638.677,537.005,638.383
					 M536.35,635.64c-0.423,0.453-0.634,1.022-0.634,1.714c0,0.638,0.2,1.17,0.597,1.584c0.4,0.418,0.898,0.627,1.491,0.627
					c0.62,0,1.143-0.229,1.566-0.683c0.418-0.451,0.63-1.023,0.63-1.713c0-0.643-0.198-1.169-0.6-1.585
					c-0.401-0.418-0.895-0.625-1.489-0.625C537.292,634.959,536.77,635.187,536.35,635.64"/>
			</defs>
			<use xlink:href="#SVGID_9_"  overflow="visible" fill="#99FFFF"/>
			<clipPath id="SVGID_10_">
				<use xlink:href="#SVGID_9_"  overflow="visible"/>
			</clipPath>
			<rect x="535.716" y="634.959" clip-path="url(#SVGID_10_)" fill="#99FFFF" width="4.284" height="4.605"/>
		</g>
	</g>
	<g>
		<g>
			<defs>
				<path id="SVGID_11_" d="M540.95,635.061c0.029,0.575,0.044,1.27,0.044,2.09c0,0.833-0.015,1.597-0.044,2.289h0.953
					c-0.028-0.681-0.045-1.445-0.045-2.289c0-0.826,0.017-1.523,0.045-2.09H540.95z"/>
			</defs>
			<use xlink:href="#SVGID_11_"  overflow="visible" fill="#99FFFF"/>
			<clipPath id="SVGID_12_">
				<use xlink:href="#SVGID_11_"  overflow="visible"/>
			</clipPath>
			<rect x="540.95" y="635.061" clip-path="url(#SVGID_12_)" fill="#99FFFF" width="0.953" height="4.379"/>
		</g>
	</g>
	<g>
		<g>
			<defs>
				<path id="SVGID_13_" d="M544.004,638.744c-0.022-0.525-0.033-1.059-0.033-1.595c0-0.489-0.011-0.955-0.031-1.404
					c0.166-0.022,0.3-0.03,0.395-0.03c0.515,0,0.9,0.148,1.15,0.442c0.252,0.293,0.378,0.657,0.378,1.09
					c0,0.429-0.116,0.797-0.348,1.094c-0.232,0.299-0.588,0.45-1.072,0.45C544.298,638.789,544.148,638.775,544.004,638.744
					 M544.098,635.05c-0.19,0.007-0.335,0.011-0.432,0.011h-0.588c0.031,0.577,0.044,1.271,0.044,2.09
					c0,0.854-0.013,1.615-0.044,2.289c0.584,0.028,1.043,0.043,1.375,0.043c0.734,0,1.306-0.238,1.716-0.713
					c0.407-0.476,0.613-1.032,0.613-1.672c0-0.565-0.183-1.047-0.548-1.451c-0.363-0.407-0.952-0.608-1.76-0.608
					C544.413,635.039,544.29,635.044,544.098,635.05"/>
			</defs>
			<use xlink:href="#SVGID_13_"  overflow="visible" fill="#99FFFF"/>
			<clipPath id="SVGID_14_">
				<use xlink:href="#SVGID_13_"  overflow="visible"/>
			</clipPath>
			<rect x="543.078" y="635.039" clip-path="url(#SVGID_14_)" fill="#99FFFF" width="3.704" height="4.443"/>
		</g>
	</g>
	<g>
		<g>
			<defs>
				<path id="SVGID_15_" d="M551.067,635.665h0.054c0,0.091,0.192,0.72,0.575,1.877h-1.225
					C550.867,636.376,551.067,635.752,551.067,635.665 M550.556,635.061c0,0.138-0.262,0.878-0.787,2.227
					c-0.521,1.35-0.786,2.066-0.786,2.152h1.013c0-0.155,0.105-0.578,0.314-1.257h1.557c0.205,0.692,0.306,1.111,0.306,1.257h1.08
					c0-0.12-0.239-0.849-0.715-2.184c-0.472-1.333-0.713-2.067-0.713-2.195H550.556z"/>
			</defs>
			<use xlink:href="#SVGID_15_"  overflow="visible" fill="#99FFFF"/>
			<clipPath id="SVGID_16_">
				<use xlink:href="#SVGID_15_"  overflow="visible"/>
			</clipPath>
			<rect x="548.983" y="635.061" clip-path="url(#SVGID_16_)" fill="#99FFFF" width="4.27" height="4.381"/>
		</g>
	</g>
	<g>
		<g>
			<defs>
				<path id="SVGID_17_" d="M554.886,637.165c0-0.535-0.013-1.016-0.038-1.442c0.177-0.031,0.346-0.048,0.506-0.048
					c0.638,0,0.957,0.239,0.957,0.718c0,0.519-0.41,0.776-1.23,0.776C555.007,637.169,554.941,637.169,554.886,637.165
					 M555.043,635.05c-0.234,0.007-0.394,0.011-0.477,0.011h-0.584c0.025,0.587,0.039,1.281,0.039,2.09
					c0,0.881-0.014,1.646-0.039,2.289h0.944c-0.023-0.688-0.037-1.244-0.037-1.666c0.044,0.002,0.122,0.005,0.228,0.005
					c0.576,0,1.063-0.124,1.464-0.383c0.397-0.256,0.596-0.65,0.596-1.188c0-0.392-0.146-0.687-0.438-0.878
					c-0.293-0.192-0.656-0.291-1.08-0.291C555.482,635.039,555.278,635.044,555.043,635.05"/>
			</defs>
			<use xlink:href="#SVGID_17_"  overflow="visible" fill="#99FFFF"/>
			<clipPath id="SVGID_18_">
				<use xlink:href="#SVGID_17_"  overflow="visible"/>
			</clipPath>
			<rect x="553.982" y="635.039" clip-path="url(#SVGID_18_)" fill="#99FFFF" width="3.194" height="4.4"/>
		</g>
	</g>
	<g>
		<g>
			<defs>
				<path id="SVGID_19_" d="M558.919,637.165c0-0.535-0.012-1.016-0.035-1.442c0.178-0.031,0.346-0.048,0.505-0.048
					c0.639,0,0.959,0.239,0.959,0.718c0,0.519-0.41,0.776-1.228,0.776C559.043,637.169,558.977,637.169,558.919,637.165
					 M559.079,635.05c-0.235,0.007-0.393,0.011-0.476,0.011h-0.586c0.027,0.587,0.043,1.281,0.043,2.09
					c0,0.881-0.016,1.646-0.043,2.289h0.944c-0.024-0.688-0.035-1.244-0.035-1.666c0.044,0.002,0.117,0.005,0.225,0.005
					c0.579,0,1.066-0.124,1.467-0.383c0.396-0.256,0.595-0.65,0.595-1.188c0-0.392-0.147-0.687-0.439-0.878
					c-0.294-0.192-0.654-0.291-1.078-0.291C559.521,635.039,559.314,635.044,559.079,635.05"/>
			</defs>
			<use xlink:href="#SVGID_19_"  overflow="visible" fill="#99FFFF"/>
			<clipPath id="SVGID_20_">
				<use xlink:href="#SVGID_19_"  overflow="visible"/>
			</clipPath>
			<rect x="558.018" y="635.039" clip-path="url(#SVGID_20_)" fill="#99FFFF" width="3.195" height="4.4"/>
		</g>
	</g>
	<g>
		<g>
			<defs>
				<path id="SVGID_21_" d="M564.819,638.383c-0.238-0.288-0.362-0.67-0.362-1.137c0-0.449,0.116-0.822,0.344-1.116
					c0.23-0.294,0.507-0.438,0.836-0.438c0.351,0,0.646,0.145,0.888,0.437c0.238,0.29,0.361,0.669,0.361,1.139
					c0,0.447-0.117,0.819-0.345,1.112c-0.229,0.297-0.509,0.444-0.832,0.444C565.359,638.824,565.062,638.677,564.819,638.383
					 M564.163,635.64c-0.422,0.453-0.633,1.022-0.633,1.714c0,0.638,0.199,1.17,0.598,1.584c0.402,0.418,0.896,0.627,1.489,0.627
					c0.619,0,1.141-0.229,1.564-0.683c0.421-0.451,0.633-1.023,0.633-1.713c0-0.643-0.202-1.169-0.603-1.585
					c-0.397-0.418-0.894-0.625-1.485-0.625C565.104,634.959,564.582,635.187,564.163,635.64"/>
			</defs>
			<use xlink:href="#SVGID_21_"  overflow="visible" fill="#99FFFF"/>
			<clipPath id="SVGID_22_">
				<use xlink:href="#SVGID_21_"  overflow="visible"/>
			</clipPath>
			<rect x="563.53" y="634.959" clip-path="url(#SVGID_22_)" fill="#99FFFF" width="4.284" height="4.605"/>
		</g>
	</g>
	<g>
		<g>
			<defs>
				<path id="SVGID_23_" d="M571.532,635.061c0.032,0.642,0.049,1.263,0.049,1.87c0,0.398,0.024,0.845,0.08,1.348h-0.049
					c-0.087-0.315-0.428-0.912-1.018-1.793c-0.555-0.831-0.83-1.303-0.83-1.425h-1c0.035,0.575,0.052,1.27,0.052,2.09
					c0,0.833-0.017,1.597-0.052,2.289h0.83c-0.034-0.793-0.05-1.471-0.05-2.024c0-0.394-0.026-0.84-0.084-1.332h0.056
					c0.089,0.341,0.456,0.977,1.103,1.904c0.617,0.876,0.926,1.36,0.926,1.452h0.831c-0.03-0.685-0.048-1.448-0.048-2.29
					c0-0.837,0.018-1.531,0.048-2.09L571.532,635.061L571.532,635.061z"/>
			</defs>
			<use xlink:href="#SVGID_23_"  overflow="visible" fill="#99FFFF"/>
			<clipPath id="SVGID_24_">
				<use xlink:href="#SVGID_23_"  overflow="visible"/>
			</clipPath>
			<rect x="568.764" y="635.061" clip-path="url(#SVGID_24_)" fill="#99FFFF" width="3.611" height="4.381"/>
		</g>
	</g>
</g>
</svg>
