<?xml version="1.0" encoding="utf-8"?>
<!-- Generator: Adobe Illustrator 15.0.0, SVG Export Plug-In . SVG Version: 6.00 Build 0)  -->
<!DOCTYPE svg PUBLIC "-//W3C//DTD SVG 1.1//EN" "http://www.w3.org/Graphics/SVG/1.1/DTD/svg11.dtd">
<svg version="1.1" id="Layer_1" xmlns="http://www.w3.org/2000/svg" xmlns:xlink="http://www.w3.org/1999/xlink" x="0px" y="0px"
	 width="216px" height="220px" viewBox="0 0 216 220" enable-background="new 0 0 216 220" xml:space="preserve">
<g>
	<g>
		<path d="M64.988,174.768v-20.692l-7.525,20.28h-3.882l-7.482-20.524v20.937h-5.112v-28.993h7.115l7.606,20.649l7.644-20.649h6.747
			v28.993H64.988z"/>
		<path d="M90.612,175.091c-2.207,0-3.435-1.388-3.599-2.983c-0.979,1.717-3.434,3.19-6.46,3.19c-5.068,0-7.685-3.19-7.685-6.666
			c0-4.05,3.147-6.38,7.195-6.664l6.257-0.451v-1.309c0-2.001-0.697-3.351-3.6-3.351c-2.37,0-3.761,1.062-3.883,3.025h-4.948
			c0.287-4.784,4.09-6.908,8.831-6.908c3.64,0,6.751,1.142,7.975,4.333c0.532,1.351,0.611,2.857,0.611,4.293v7.89
			c0,0.984,0.331,1.35,1.188,1.35c0.328,0,0.654-0.083,0.654-0.083v3.765C92.286,174.889,91.838,175.091,90.612,175.091z
			 M86.32,165.321l-5.399,0.409c-1.553,0.121-3.065,1.061-3.065,2.782c0,1.634,1.432,2.655,3.026,2.655
			c3.187,0,5.438-1.718,5.438-4.865V165.321z"/>
		<path d="M109.332,174.768l-0.33-2.334c-1.266,1.963-3.638,2.823-5.966,2.823c-2.128,0-3.887-0.735-5.193-1.801
			c-2.538-2.083-3.762-5.276-3.762-9.284c0-4.168,1.265-7.397,3.801-9.482c1.309-1.063,3.026-1.716,5.192-1.716
			c2.7,0,4.662,0.899,5.561,1.999v-9.729h5.114v29.523H109.332z M104.056,157.264c-1.592,0-2.698,0.738-3.434,1.677
			c-1.06,1.391-1.349,3.312-1.349,5.153c0,1.838,0.289,3.803,1.349,5.194c0.735,0.938,1.842,1.675,3.434,1.675
			c4.008,0,4.826-3.804,4.826-6.869C108.881,161.025,108.063,157.264,104.056,157.264z"/>
		<path d="M136.026,165.73h-14.23c-0.045,1.637,0.531,3.188,1.553,4.17c0.735,0.696,1.758,1.309,3.147,1.309
			c1.474,0,2.373-0.288,3.106-1.021c0.451-0.451,0.818-1.023,1.026-1.798h4.903c-0.121,1.267-0.98,2.945-1.797,3.922
			c-1.802,2.129-4.456,2.986-7.155,2.986c-2.901,0-5.031-1.022-6.704-2.618c-2.13-2.045-3.274-5.032-3.274-8.507
			c0-3.391,1.023-6.417,3.067-8.5c1.595-1.634,3.881-2.697,6.787-2.697c3.147,0,6.008,1.264,7.774,3.921
			c1.551,2.334,1.919,4.746,1.834,7.401C136.063,164.297,136.026,165.281,136.026,165.73z M129.644,158.288
			c-0.694-0.738-1.759-1.229-3.23-1.229c-1.554,0-2.818,0.655-3.555,1.64c-0.74,0.938-1.063,1.92-1.108,3.308h9.204
			C130.911,160.414,130.464,159.188,129.644,158.288z"/>
		<path d="M145.213,150.56v-5.274h5.481v5.274H145.213z M145.38,174.768v-21.261h5.194v21.261H145.38z"/>
		<path d="M167.945,174.768v-13.045c0-2.493-0.818-4.008-3.517-4.008c-1.8,0-2.985,1.145-3.682,2.699
			c-0.734,1.676-0.694,3.883-0.694,5.685v8.669h-5.111v-21.261h4.291l0.368,2.736c1.269-2.249,3.802-3.268,6.257-3.268
			c4.54,0,7.196,3.186,7.196,7.601v14.192H167.945z"/>
		<path d="M78.74,214.334c-2.208,2.21-5.602,3.106-9.159,3.106c-3.064,0-6.295-0.816-8.667-2.982
			c-1.718-1.556-3.027-4.01-3.027-6.746h5.399c0,1.429,0.653,2.696,1.512,3.554c1.228,1.228,3.191,1.553,4.867,1.553
			c2.004,0,3.923-0.409,5.029-1.553c0.651-0.692,1.145-1.391,1.145-2.779c0-2.127-1.634-3.109-3.434-3.437
			c-1.966-0.366-4.5-0.447-6.421-0.775c-4.007-0.656-7.359-3.273-7.359-8.094c0-2.291,1.022-4.214,2.536-5.725
			c1.922-1.882,5.111-3.068,8.504-3.068c3.108,0,6.132,0.981,8.097,2.82c1.717,1.635,2.901,3.761,2.942,6.173h-5.397
			c-0.042-1.019-0.571-2.123-1.269-2.859c-0.939-0.982-2.859-1.556-4.414-1.556c-1.634,0-3.52,0.368-4.705,1.596
			c-0.612,0.652-0.98,1.388-0.98,2.453c0,1.882,1.227,2.86,2.947,3.15c1.839,0.285,4.415,0.489,6.294,0.734
			c4.335,0.612,7.976,3.436,7.976,8.382C81.155,210.983,80.171,212.903,78.74,214.334z"/>
		<path d="M91.286,217.197c-4.293,0-6.419-2.455-6.419-6.542v-10.797H80.98v-4.209h3.887v-5.397l5.11-1.267v6.664h5.358v4.209
			h-5.358v10.346c0,1.64,0.736,2.331,2.374,2.331c1.062,0,1.919-0.041,3.312-0.204v4.294
			C94.23,216.99,92.799,217.197,91.286,217.197z"/>
		<path d="M110.947,216.911v-13.127c0-2.451-0.818-3.964-3.519-3.964c-3.064,0-4.371,3.271-4.371,5.888v11.204h-5.111v-29.522h5.111
			v10.51c1.224-1.799,3.596-2.784,5.805-2.784c4.536,0,7.194,3.233,7.194,7.608v14.188H110.947z"/>
		<path d="M125.741,217.154c-3.478,0-5.809-1.674-5.809-5.724v-24.083h5.15v23.226c0,1.225,0.291,2.045,2.049,2.045
			c0.45,0,0.569-0.042,0.861-0.042v4.294C126.965,217.075,126.763,217.154,125.741,217.154z"/>
		<path d="M155.418,216.911v-13.207c0-2.618-0.691-4.127-3.27-4.127c-2.903,0-4.168,3.065-4.168,5.724v11.61h-5.072v-13.207
			c0-2.618-0.695-4.127-3.273-4.127c-2.903,0-4.211,3.065-4.211,5.724v11.61h-5.067v-21.262h4.251l0.408,2.818
			c1.186-1.959,3.229-3.352,6.051-3.352c2.984,0,5.031,1.311,6.094,3.477c1.271-2.21,3.557-3.477,6.42-3.477
			c4.538,0,6.911,3.03,6.911,7.445v14.351H155.418z"/>
	</g>
	<g>
		<path d="M176.228,146.838v6.91h-1.514v-6.91h-2.469v-1.412h6.45v1.412H176.228z"/>
		<path d="M186.278,153.749v-5.94l-2.164,5.824h-1.111l-2.152-5.896v6.012h-1.467v-8.322h2.039l2.188,5.93l2.197-5.93h1.936v8.322
			H186.278z"/>
	</g>
</g>
<g>
	<path fill-rule="evenodd" clip-rule="evenodd" d="M28.529,114.378c-0.244-1.111,0.511-1.229,1.299-1.305
		c0.162-5.803-6.625-4.656-9.104-7.806c1.154-5.09,2.274-8.817-5.215-7.809c2.283-8.985-1.037-8.503-6.504-11.708
		c-0.952-3.55,2.588-2.619,2.609-5.204c-0.379-3.516-5.486-2.336-6.509-5.208c3.25-6.096,2.229-8.099-2.604-11.708
		c2.999-4.565,5.313-7.602,1.296-13.01c2.724-3.396,5.079-1.108,7.816-2.609c-0.104-4.856-1.463-3.698,0-7.803
		c6.9,1.506,9.328,1.345,11.696-3.905c6.68,2.182,6.35,2.182,13.009,0c1.726-4.037-0.349-3.714,0-9.108
		c6.196-0.517,8.713-0.842,11.73-6.506c5.485,2.292,7.8,3.229,11.694-1.303c4.831,3.253,6.96,4.682,13.03,1.303
		c0.008,2.586,3.537,1.657,2.588,5.208c9.48-5.47,9.835,7.3,18.22,2.606c1.929,1.533,2.032,4.906,3.915,6.504
		c8.43-0.743,2.648-7.688,6.489-13.021c-1.177-2.752-5.226,2.457-9.105,1.302c-2.01-2.664-2.01-11.646,0-14.31
		c3.687,0.219,5.425,2.388,9.105,2.602c0.864-4.757-2.817-4.986-2.592-9.111c3.437-2.483,11.953-1.352,15.613,0
		c-1.74,2.596-2.483,6.202-3.9,9.111c5.172,0.845,5.223-3.438,10.403-2.602c1.127,6.562,0.349,7.271,0,14.31
		c-4.035,0.137-6.215-1.588-9.108-2.599c2.042,6.909-0.054,10.523,3.901,14.317c4.854,1.368,2.556-4.39,5.207-5.208
		c3.655-1.737,9.749,1.762,10.408-5.205c6.327,2.43,9.366,0.613,11.708-3.905c4.729,3.083,8.288,2.752,11.725-1.303
		c5.528,4.57,6.495,2.878,14.315,1.303c-0.126,3.548,2.154,2.619,0,5.208c4.583,2.001,5.809-0.706,10.404,1.298
		c1.063,3.685-1.834,3.375-1.296,6.51c1.024,2.872,4.536,3.255,6.501,5.202c2.604-2.201,10.233-5.239,9.096,2.603
		c4.123,0.637,4.608-2.342,9.127-1.301c0.875,5.799,0.448,8.079,7.793,9.104c-2.134,8.377-2.079,7.585,1.312,14.317
		c-4.034,3.466-4.624,6.748-1.312,11.708c-2.49,0.557-2.347,3.722-6.514,2.604c-0.626,4.11,2.361,4.596,1.322,9.111
		c-1.726,1.326-4.81,1.273-6.515,2.601c-0.536,3.135,2.377,2.827,1.303,6.503c-1.513,1.096-3.492,1.722-6.516,1.302
		c0,3.039,0,6.07,0,9.108c-4.102-0.417-11.47,4.296-6.505,7.812l-1.946,1.515l0.648,2.385c-4.777,0-9.541,0-14.317,0
		c-0.363,2.101,1.229,2.249,1.309,3.905l-1.952,1.52l0.644,2.385c-2.15,0-4.336,0-6.499,0l0.655-2.385l-1.95-1.52
		c0.699-1.043,1.365-2.114,1.295-3.905c-4.77,0-9.547,0-14.312,0c-0.374,2.101,1.226,2.249,1.297,3.905l-1.946,1.52l0.649,2.385
		c-2.167,0-4.342,0-6.499,0l0.639-2.385l-1.953-1.52c0.695-1.043,1.371-2.114,1.314-3.905c-4.774,0-9.547,0-14.314,0
		c-0.368,2.101,1.223,2.249,1.292,3.905l-1.948,1.52l0.656,2.385c-2.161,0-4.337,0-6.513,0l0.659-2.385l-1.969-1.52
		c0.709-1.043,1.366-2.114,1.31-3.905c-5.063,0.32-17.282-1.655-13.006,3.905l-1.956,1.52l0.643,2.385c-2.155,0-4.327,0-6.503,0
		l0.656-2.385l-1.96-1.52c0.703-1.043,1.363-2.114,1.304-3.905c-5.05,0.32-17.288-1.655-13.009,3.905l-1.947,1.52l0.644,2.385
		c-2.167,0-4.334,0-6.49,0l0.635-2.385l-1.934-1.52c0.661-1.043,1.333-2.114,1.299-3.905c-4.362,1.286-14.615-3.308-13.019,3.905
		l-1.954,1.52l0.641,2.385c-1.728,0-3.458,0-5.199,0l0.656-2.385l-1.956-1.52c0-0.869,0-1.739,0-2.599
		c-1.64-1.562-15.209-3.998-13.021,2.599l-1.932,1.52l0.632,2.385c-1.718,0-3.458,0-5.204,0l0.655-2.385l-1.952-1.52
		c0-0.869,0-1.739,0-2.599c-1.794-2.972-9.056-0.49-13.009-1.307l0.641-2.385L28.529,114.378z M51.937,38.906
		c-7.148,13.116,6.515,26.043,13.02,35.131c-14.608,10.062,4.125,49.099,15.617,31.23c-4.666-2.723-12.116-2.625-11.703-10.409
		c3.444,0.01,7.418-0.494,9.107,1.298c-0.101-6.155-0.668-12.801,3.899-14.313c3.7,2.798,4.249,8.759,6.492,13.015
		c0.534-2.201,7.639-4.347,9.126-1.301c-0.141,7.665-8.892,6.732-10.426,13.01c20.91,10.148,16.512-26.378,6.511-33.831
		c5.1-7.043,9.171-15.102,7.812-28.625C90.405,38.223,60.709,22.87,51.937,38.906z M165.155,37.599
		c-10.31-14.098-36.622,0.659-48.148,6.512c-1.948,14.529,2.868,22.289,7.795,29.926c-7.258,6.148-13.296,23.937-5.187,33.837
		c4.678,2.361,11.367,1.686,11.698-3.911c-5.502-1.849-10.386-4.352-10.392-11.709c5.145-2.007,7.942,4.921,10.392,1.303
		c-0.382-1.328,0.776-12.201,6.516-11.714c2.549,4.546,1.76,11.217,2.601,14.313c0.984-2.545,9.631-1.932,9.1,1.302
		c-1.971,4.959-7.902,5.979-13.011,7.809c8.685,14.314,22.744-5.545,22.122-18.214c-0.263-5.369-3.729-8.938-5.202-13.016
		C159.944,64.935,173.882,49.549,165.155,37.599z M169.714,109.826l1.952-0.655c12.891-0.167,29.984-21.458,16.901-36.435
		c10.271-6.067,7.421-26.381-5.19-27.322c-0.979,4.44,5.278,1.649,3.897,6.504c-0.327,2.29-2.239,2.968-5.205,2.598
		c-1.366,5.712,4.398,4.283,3.893,9.115c-5.673,1.953-5.09,5.114-3.893,11.708c-1.163,1.014-2.937,1.402-5.211,1.306
		c-0.644,4.101,2.34,4.59,1.3,9.106c-10.338,4.417-10.608,18.876-18.215,26.027c5.688,0.907,5.786-3.759,10.426-3.903
		L169.714,109.826z M49.337,109.171c3.816-0.333,3.999,2.943,7.817,2.606c-5.481-10.155-10.005-21.237-18.201-28.627
		c0-2.588,3.521-1.653,2.578-5.208c-2.578-1.312-5.562-2.246-6.51-5.207c0.031-2.582,3.556-1.652,2.608-5.205
		c-5.106-2.442-6.135-6.778-2.608-11.71c-1.875-2.023-5.223-2.566-3.895-7.81c3.223,0.167,2.213-1.587,0-1.294
		c-2.764,2.005-4.839,4.694-7.818,6.501c-1.576,10.253,2.568,14.8,5.219,20.819c-11.502,15.436,5.603,35.908,18.213,35.134
		l1.307,0.655L49.337,109.171z"/>
	<path fill-rule="evenodd" clip-rule="evenodd" d="M28.06,122.46l0.469,2.329c-5.271,1.11-10.069-7.583-2.615-7.806l1.521,1.948
		l2.393-0.654c0,0.867,0,1.742,0,2.601L28.06,122.46z"/>
	<path fill-rule="evenodd" clip-rule="evenodd" d="M178.159,100.063c-0.524,3.118,5.934-0.721,3.911,3.9
		c-3.667,1.113-5.333,4.209-10.404,3.911l0.636-1.956l-1.932,0.648c-0.569-2.476-3.742-2.351-2.619-6.504
		c2.704-2.852,4.202,1.14,6.499-1.299l1.534,1.952L178.159,100.063z"/>
	<path fill-rule="evenodd" clip-rule="evenodd" d="M46.086,105.918l-0.656,1.956c-5.711,0.085-8.149-3.113-10.408-6.51
		c2.312-0.297,6.52,1.311,5.21-2.601l1.956,0.646l0.649-1.95c1.256,0.043,1.001,1.6,1.296,2.604c2.429,1.25,4.348-3.896,5.204,0
		c0.417,3.01-0.2,4.993-1.289,6.504L46.086,105.918z"/>
	<path d="M152.51,125.691c-1.099-0.164-1.858-1.177-1.713-2.275l0,0c0.16-1.091,1.175-1.853,2.267-1.7l0,0
		c2.382,0.336,4.858,0.496,7.312,0.496l0,0c2.604,0,5.213-0.176,7.769-0.503l0,0c1.099-0.14,2.097,0.642,2.241,1.743l0,0
		c0.143,1.103-0.644,2.102-1.744,2.24l0,0c-2.689,0.349-5.486,0.536-8.265,0.536l0,0
		C157.729,126.227,155.086,126.052,152.51,125.691L152.51,125.691z"/>
	<path d="M131.693,125.691c-1.109-0.153-1.873-1.165-1.712-2.275l0,0c0.152-1.091,1.176-1.86,2.276-1.702l0,0
		c2.38,0.338,4.835,0.498,7.297,0.498l0,0c2.61,0,5.214-0.176,7.771-0.503l0,0l0,0c1.104-0.134,2.098,0.642,2.256,1.743l0,0
		c0.137,1.103-0.647,2.102-1.757,2.24l0,0c-2.703,0.349-5.479,0.536-8.27,0.536l0,0
		C136.914,126.227,134.275,126.052,131.693,125.691L131.693,125.691z"/>
	<path d="M69.217,125.691c-1.087-0.153-1.854-1.172-1.691-2.268l0,0c0.153-1.098,1.166-1.859,2.261-1.709l0,0
		c2.382,0.338,4.85,0.498,7.314,0.498l0,0c2.603,0,5.213-0.176,7.78-0.503l0,0c1.086-0.14,2.09,0.642,2.229,1.743l0,0
		c0.136,1.093-0.63,2.102-1.726,2.24l0,0c-2.725,0.349-5.494,0.536-8.284,0.536l0,0C74.464,126.227,71.821,126.052,69.217,125.691
		L69.217,125.691z"/>
	<path d="M48.429,125.691c-1.103-0.139-1.866-1.152-1.727-2.25l0,0c0.154-1.101,1.145-1.873,2.244-1.733l0,0
		c2.608,0.351,5.292,0.503,7.987,0.503l0,0c2.832,0,5.676-0.176,8.439-0.505l0,0v0.002c1.088-0.134,2.102,0.655,2.228,1.756l0,0
		c0.132,1.106-0.656,2.091-1.747,2.227l0,0c-2.93,0.354-5.914,0.536-8.92,0.536l0,0C54.09,126.227,51.227,126.052,48.429,125.691
		L48.429,125.691z"/>
	<path d="M26.502,120.763c-1.023-0.525-1.417-1.764-0.882-2.774l0,0c0.985-1.874,2.468-2.92,3.66-3.774l0,0
		c0.929-0.656,2.215-0.431,2.872,0.496l0,0c0.661,0.921,0.439,2.211-0.49,2.858l0,0c-1.192,0.824-2.001,1.5-2.396,2.299l0,0
		c-0.368,0.711-1.077,1.124-1.83,1.124l0,0C27.138,120.992,26.788,120.918,26.502,120.763L26.502,120.763z"/>
	<path d="M169.244,110.524c-0.382-0.251-0.509-0.763-0.241-1.154l0,0c0.829-1.286,1.58-2.61,2.644-3.974l0,0
		c0.295-0.362,0.81-0.423,1.18-0.134l0,0c0.372,0.281,0.427,0.812,0.128,1.175l0,0c-0.948,1.241-1.688,2.519-2.556,3.835l0,0
		c-0.156,0.251-0.417,0.39-0.708,0.39l0,0C169.544,110.663,169.398,110.622,169.244,110.524L169.244,110.524z"/>
	<path d="M175.1,102.311c-0.885-0.373-1.299-1.39-0.917-2.272l0,0c1.091-2.566,1.878-4.087,2.309-5.647l0,0
		c0.246-0.921,1.202-1.468,2.137-1.208l0,0c0.922,0.256,1.456,1.208,1.218,2.138l0,0c-0.59,2.042-1.457,3.653-2.473,6.068l0,0
		c-0.278,0.666-0.928,1.06-1.589,1.06l0,0C175.545,102.45,175.318,102.408,175.1,102.311L175.1,102.311z"/>
	<path d="M46.943,110.44c-0.682-1.19-1.291-2.494-1.994-3.978l0,0c-0.302-0.636-0.025-1.386,0.6-1.673l0,0
		c0.631-0.301,1.374-0.035,1.69,0.593l0,0c0.688,1.479,1.277,2.737,1.898,3.823l0,0c0.357,0.602,0.136,1.375-0.482,1.709l0,0
		c-0.194,0.114-0.412,0.168-0.606,0.168l0,0C47.6,111.083,47.184,110.855,46.943,110.44L46.943,110.44z"/>
	<path d="M41.061,100.131c-1.391-2.214-1.985-2.691-3.242-4.527l0,0l0.005,0.002c-0.407-0.605-0.246-1.438,0.354-1.853l0,0
		c0.624-0.413,1.439-0.256,1.869,0.355l0,0c1.061,1.604,1.76,2.217,3.265,4.591l0,0c0.391,0.623,0.22,1.445-0.411,1.841l0,0
		c-0.22,0.14-0.458,0.206-0.712,0.206l0,0C41.751,100.746,41.304,100.525,41.061,100.131L41.061,100.131z"/>
	<path d="M27.04,124.192h0.012c-0.964-0.557-1.272-1.787-0.723-2.744l0,0c0.553-0.957,1.793-1.269,2.744-0.715l0,0
		c1.986,1.17,4.396,1.56,7.087,1.56l0,0c2.71,0,5.647-0.406,8.511-0.592l0,0c1.088-0.067,2.048,0.769,2.114,1.875l0,0
		c0.073,1.101-0.77,2.049-1.874,2.126l0,0c-2.655,0.163-5.661,0.589-8.751,0.595l0,0C33.105,126.298,29.936,125.878,27.04,124.192
		L27.04,124.192z"/>
	<path d="M90.077,125.691c-1.106-0.139-1.882-1.138-1.748-2.24l0,0c0.144-1.101,1.144-1.882,2.253-1.743l0,0
		c2.541,0.327,5.152,0.503,7.771,0.503l0,0c2.447,0,4.922-0.16,7.318-0.503l0,0c1.091-0.145,2.1,0.617,2.253,1.715l0,0
		c0.163,1.104-0.616,2.104-1.704,2.268l0,0c-2.591,0.361-5.239,0.536-7.867,0.536l0,0C95.548,126.227,92.771,126.04,90.077,125.691
		L90.077,125.691z"/>
	<path d="M110.897,125.691L110.897,125.691c-1.097-0.136-1.881-1.138-1.742-2.24l0,0c0.138-1.106,1.137-1.882,2.244-1.743l0,0
		c2.556,0.327,5.157,0.503,7.769,0.503l0,0c2.46,0,4.916-0.16,7.313-0.498l0,0c1.098-0.15,2.119,0.611,2.276,1.709l0,0
		c0.159,1.096-0.604,2.104-1.715,2.264l0,0c-2.603,0.365-5.224,0.54-7.874,0.54l0,0C116.371,126.227,113.6,126.04,110.897,125.691
		L110.897,125.691z"/>
	<path d="M172.955,125.616c-1.049-0.339-1.616-1.483-1.277-2.546l0,0c0.356-1.062,1.486-1.636,2.557-1.286l0,0
		c1.158,0.39,3.347,0.676,5.587,0.676l0,0c3.533,0.068,7.437-0.857,8.303-1.827l0,0c0.291-0.303,0.291-0.359,0.291-0.518l0,0
		c0.038-0.225-0.276-1.248-1.883-2.745l0,0c-0.807-0.771-0.854-2.052-0.072-2.863l0,0c0.746-0.813,2.039-0.853,2.849-0.088l0,0
		c1.947,1.868,3.112,3.631,3.161,5.696l0,0c0.013,1.404-0.691,2.676-1.606,3.49l0,0c-0.896,0.826-1.984,1.355-3.161,1.779l0,0
		c-2.379,0.809-5.187,1.109-7.882,1.118l0,0C177.242,126.485,174.825,126.219,172.955,125.616L172.955,125.616z"/>
</g>
</svg>
