<?xml version="1.0" encoding="utf-8"?>
<!-- Generator: Adobe Illustrator 15.0.0, SVG Export Plug-In . SVG Version: 6.00 Build 0)  -->
<!DOCTYPE svg PUBLIC "-//W3C//DTD SVG 1.1//EN" "http://www.w3.org/Graphics/SVG/1.1/DTD/svg11.dtd">
<svg version="1.1" xmlns="http://www.w3.org/2000/svg" xmlns:xlink="http://www.w3.org/1999/xlink" x="0px" y="0px" width="160px"
	 height="52.348px" viewBox="469.036 624.746 160 52.348" enable-background="new 469.036 624.746 160 52.348" xml:space="preserve"
	>
<g id="Layer_1">
	<path d="M629.16,670.021c0,3.907-3.164,7.073-7.072,7.073H476.211c-3.906,0-7.073-3.166-7.073-7.073v-38.195
		c0-3.908,3.168-7.076,7.073-7.076h145.875c3.909,0,7.072,3.168,7.072,7.076L629.16,670.021L629.16,670.021z"/>
</g>
<g id="Layer_3">
	<g>
		<g>
			<defs>
				<path id="SVGID_1_" d="M488.273,663.319c0-1.064,0.863-1.93,1.93-1.93c1.065,0,1.93,0.865,1.93,1.93
					c0,1.065-0.864,1.932-1.93,1.932C489.136,665.251,488.273,664.385,488.273,663.319 M482.91,638.642h14.588v21.809H482.91
					V638.642z M483.529,632.017c-1.598,0-2.897,1.299-2.897,2.896v29.567c0,1.599,1.298,2.896,2.897,2.896h13.345
					c1.599,0,2.898-1.298,2.898-2.896v-29.567c0-1.597-1.298-2.896-2.898-2.896H483.529z"/>
			</defs>
			<use xlink:href="#SVGID_1_"  overflow="visible" fill="#99FFFF"/>
			<clipPath id="SVGID_2_">
				<use xlink:href="#SVGID_1_"  overflow="visible"/>
			</clipPath>
			<rect x="480.633" y="632.017" clip-path="url(#SVGID_2_)" fill="#99FFFF" width="19.139" height="35.359"/>
		</g>
	</g>
	<g>
		<g>
			<defs>
				<path id="SVGID_3_" d="M511.674,634.24c0.151-0.475,0.278-0.961,0.382-1.416h0.035c0.116,0.455,0.231,0.916,0.394,1.429
					l0.777,2.246h-2.352L511.674,634.24z M511.5,631.935l-2.652,7.808h1.042l0.812-2.454h2.77l0.833,2.454h1.079l-2.666-7.808H511.5
					z"/>
			</defs>
			<use xlink:href="#SVGID_3_"  overflow="visible" fill="#99FFFF"/>
			<clipPath id="SVGID_4_">
				<use xlink:href="#SVGID_3_"  overflow="visible"/>
			</clipPath>
			<rect x="508.848" y="631.935" clip-path="url(#SVGID_4_)" fill="#99FFFF" width="6.536" height="7.808"/>
		</g>
	</g>
	<g>
		<g>
			<defs>
				<path id="SVGID_5_" d="M519.58,634.133l-1.09,3.144c-0.184,0.518-0.345,0.985-0.474,1.447h-0.036
					c-0.116-0.462-0.266-0.93-0.452-1.447l-1.099-3.144h-1.091l2.13,5.609h0.976l2.203-5.609H519.58z"/>
			</defs>
			<use xlink:href="#SVGID_5_"  overflow="visible" fill="#99FFFF"/>
			<clipPath id="SVGID_6_">
				<use xlink:href="#SVGID_5_"  overflow="visible"/>
			</clipPath>
			<rect x="515.337" y="634.135" clip-path="url(#SVGID_6_)" fill="#99FFFF" width="5.309" height="5.609"/>
		</g>
	</g>
	<g>
		<g>
			<defs>
				<path id="SVGID_7_" d="M521.967,638.143c0-1.089,1.262-1.285,2.376-1.263v0.974c0,0.105-0.014,0.224-0.047,0.328
					c-0.163,0.475-0.637,0.938-1.38,0.938C522.407,639.118,521.967,638.816,521.967,638.143 M521.341,634.493l0.232,0.682
					c0.393-0.267,0.938-0.415,1.472-0.415c1.147-0.013,1.273,0.834,1.273,1.297v0.117c-2.165-0.011-3.372,0.729-3.372,2.087
					c0,0.809,0.579,1.611,1.715,1.611c0.801,0,1.415-0.397,1.716-0.838h0.035l0.093,0.706h0.917c-0.06-0.38-0.084-0.855-0.084-1.341
					v-2.099c0-1.124-0.415-2.293-2.143-2.293C522.487,634.008,521.804,634.206,521.341,634.493"/>
			</defs>
			<use xlink:href="#SVGID_7_"  overflow="visible" fill="#99FFFF"/>
			<clipPath id="SVGID_8_">
				<use xlink:href="#SVGID_7_"  overflow="visible"/>
			</clipPath>
			<rect x="520.946" y="634.008" clip-path="url(#SVGID_8_)" fill="#99FFFF" width="4.475" height="5.866"/>
		</g>
	</g>
	<g>
		<g>
			<defs>
				<path id="SVGID_9_" d="M526.916,639.742h1.02v-5.61h-1.02V639.742z M526.764,632.445c0,0.358,0.256,0.657,0.636,0.657h0.015
					c0.406,0,0.659-0.299,0.659-0.657c0-0.362-0.253-0.651-0.649-0.651C527.029,631.794,526.764,632.083,526.764,632.445"/>
			</defs>
			<use xlink:href="#SVGID_9_"  overflow="visible" fill="#99FFFF"/>
			<clipPath id="SVGID_10_">
				<use xlink:href="#SVGID_9_"  overflow="visible"/>
			</clipPath>
			<rect x="526.764" y="631.794" clip-path="url(#SVGID_10_)" fill="#99FFFF" width="1.31" height="7.948"/>
		</g>
	</g>
	<g>
		<g>
			<defs>
				<rect id="SVGID_11_" x="529.566" y="631.517" width="1.021" height="8.226"/>
			</defs>
			<use xlink:href="#SVGID_11_"  overflow="visible" fill="#99FFFF"/>
			<clipPath id="SVGID_12_">
				<use xlink:href="#SVGID_11_"  overflow="visible"/>
			</clipPath>
			<rect x="529.566" y="631.517" clip-path="url(#SVGID_12_)" fill="#99FFFF" width="1.021" height="8.226"/>
		</g>
	</g>
	<g>
		<g>
			<defs>
				<path id="SVGID_13_" d="M532.8,638.143c0-1.089,1.266-1.285,2.378-1.263v0.974c0,0.105-0.013,0.224-0.047,0.328
					c-0.162,0.475-0.636,0.938-1.381,0.938C533.242,639.118,532.8,638.816,532.8,638.143 M532.175,634.493l0.233,0.684
					c0.392-0.268,0.938-0.416,1.473-0.416c1.147-0.013,1.275,0.835,1.275,1.299v0.115c-2.169-0.012-3.373,0.729-3.373,2.087
					c0,0.809,0.58,1.61,1.714,1.61c0.799,0,1.414-0.396,1.717-0.836h0.035l0.09,0.706h0.917c-0.057-0.382-0.081-0.856-0.081-1.343
					v-2.099c0-1.124-0.417-2.293-2.142-2.293C533.324,634.008,532.639,634.206,532.175,634.493"/>
			</defs>
			<use xlink:href="#SVGID_13_"  overflow="visible" fill="#99FFFF"/>
			<clipPath id="SVGID_14_">
				<use xlink:href="#SVGID_13_"  overflow="visible"/>
			</clipPath>
			<rect x="531.781" y="634.008" clip-path="url(#SVGID_14_)" fill="#99FFFF" width="4.473" height="5.866"/>
		</g>
	</g>
	<g>
		<g>
			<defs>
				<path id="SVGID_15_" d="M538.803,637.865c-0.024-0.115-0.034-0.242-0.034-0.368v-1.01c0-0.164,0.022-0.301,0.058-0.428
					c0.196-0.765,0.846-1.25,1.541-1.25c1.09,0,1.67,0.96,1.67,2.095c0,1.286-0.627,2.156-1.703,2.156
					C539.603,639.061,539.001,638.572,538.803,637.865 M537.749,631.519v6.776c0,0.5-0.011,1.065-0.044,1.447h0.878l0.058-0.926
					h0.025c0.427,0.741,1.066,1.056,1.877,1.056c1.25,0,2.526-0.998,2.526-3.015c0-1.689-0.974-2.85-2.365-2.85
					c-0.904,0-1.55,0.393-1.912,1.019h-0.022v-3.508H537.749z"/>
			</defs>
			<use xlink:href="#SVGID_15_"  overflow="visible" fill="#99FFFF"/>
			<clipPath id="SVGID_16_">
				<use xlink:href="#SVGID_15_"  overflow="visible"/>
			</clipPath>
			<rect x="537.705" y="631.519" clip-path="url(#SVGID_16_)" fill="#99FFFF" width="5.364" height="8.354"/>
		</g>
	</g>
	<g>
		<g>
			<defs>
				<rect id="SVGID_17_" x="544.283" y="631.517" width="1.02" height="8.226"/>
			</defs>
			<use xlink:href="#SVGID_17_"  overflow="visible" fill="#99FFFF"/>
			<clipPath id="SVGID_18_">
				<use xlink:href="#SVGID_17_"  overflow="visible"/>
			</clipPath>
			<rect x="544.283" y="631.517" clip-path="url(#SVGID_18_)" fill="#99FFFF" width="1.02" height="8.226"/>
		</g>
	</g>
	<g>
		<g>
			<defs>
				<path id="SVGID_19_" d="M549.094,634.726c1.134,0,1.412,1.02,1.4,1.657h-2.965C547.609,635.675,548.05,634.726,549.094,634.726
					 M546.531,637.031c0,1.681,1.042,2.83,2.757,2.83c0.892,0,1.519-0.197,1.878-0.361l-0.185-0.72
					c-0.372,0.152-0.821,0.279-1.553,0.279c-1.021,0-1.889-0.567-1.913-1.946l3.929,0.009c0.022-0.115,0.035-0.275,0.035-0.485
					c0-1.03-0.477-2.642-2.306-2.642C547.54,633.995,546.531,635.329,546.531,637.031"/>
			</defs>
			<use xlink:href="#SVGID_19_"  overflow="visible" fill="#99FFFF"/>
			<clipPath id="SVGID_20_">
				<use xlink:href="#SVGID_19_"  overflow="visible"/>
			</clipPath>
			<rect x="546.531" y="633.995" clip-path="url(#SVGID_20_)" fill="#99FFFF" width="4.949" height="5.866"/>
		</g>
	</g>
	<g>
		<g>
			<defs>
				<path id="SVGID_21_" d="M555.708,636.95c0-1.065,0.522-2.179,1.715-2.179c1.207,0,1.682,1.193,1.682,2.143
					c0,1.276-0.731,2.194-1.7,2.194h-0.017C556.405,639.108,555.708,638.181,555.708,636.95 M554.678,636.987
					c0,1.772,1.184,2.885,2.688,2.885h0.013c1.332,0,2.779-0.904,2.779-2.992c0-1.703-1.088-2.872-2.698-2.872
					C555.918,634.008,554.678,635.107,554.678,636.987"/>
			</defs>
			<use xlink:href="#SVGID_21_"  overflow="visible" fill="#99FFFF"/>
			<clipPath id="SVGID_22_">
				<use xlink:href="#SVGID_21_"  overflow="visible"/>
			</clipPath>
			<rect x="554.678" y="634.008" clip-path="url(#SVGID_22_)" fill="#99FFFF" width="5.48" height="5.866"/>
		</g>
	</g>
	<g>
		<g>
			<defs>
				<path id="SVGID_23_" d="M562.325,635.05h-0.021l-0.06-0.917h-0.904c0.033,0.465,0.047,0.929,0.047,1.522v4.087h1.019v-3.381
					c0-0.164,0.022-0.35,0.069-0.479c0.188-0.567,0.705-1.042,1.367-1.042c0.963,0,1.299,0.764,1.299,1.668v3.231h1.023v-3.346
					c0-1.923-1.21-2.389-1.985-2.389C563.252,634.008,562.604,634.529,562.325,635.05"/>
			</defs>
			<use xlink:href="#SVGID_23_"  overflow="visible" fill="#99FFFF"/>
			<clipPath id="SVGID_24_">
				<use xlink:href="#SVGID_23_"  overflow="visible"/>
			</clipPath>
			<rect x="561.341" y="634.008" clip-path="url(#SVGID_24_)" fill="#99FFFF" width="4.823" height="5.734"/>
		</g>
	</g>
	<g>
		<g>
			<defs>
				<path id="SVGID_25_" d="M570.39,633.103v1.03h-0.868v0.776h0.868v3.062c0,0.658,0.114,1.158,0.395,1.472
					c0.243,0.266,0.624,0.429,1.103,0.429c0.39,0,0.707-0.07,0.9-0.142l-0.045-0.774c-0.148,0.046-0.312,0.067-0.593,0.067
					c-0.564,0-0.763-0.394-0.763-1.087v-3.027h1.461v-0.776h-1.461v-1.341L570.39,633.103z"/>
			</defs>
			<use xlink:href="#SVGID_25_"  overflow="visible" fill="#99FFFF"/>
			<clipPath id="SVGID_26_">
				<use xlink:href="#SVGID_25_"  overflow="visible"/>
			</clipPath>
			<rect x="569.521" y="632.792" clip-path="url(#SVGID_26_)" fill="#99FFFF" width="3.326" height="7.082"/>
		</g>
	</g>
	<g>
		<g>
			<defs>
				<path id="SVGID_27_" d="M573.936,631.519v8.224h1.021v-3.381c0-0.198,0.01-0.35,0.069-0.487
					c0.195-0.558,0.708-1.021,1.366-1.021c0.962,0,1.297,0.753,1.297,1.669v3.22h1.021v-3.334c0-1.937-1.206-2.4-1.957-2.4
					c-0.382,0-0.74,0.104-1.043,0.29c-0.315,0.163-0.568,0.428-0.731,0.716h-0.021v-3.495H573.936z"/>
			</defs>
			<use xlink:href="#SVGID_27_"  overflow="visible" fill="#99FFFF"/>
			<clipPath id="SVGID_28_">
				<use xlink:href="#SVGID_27_"  overflow="visible"/>
			</clipPath>
			<rect x="573.936" y="631.519" clip-path="url(#SVGID_28_)" fill="#99FFFF" width="4.772" height="8.224"/>
		</g>
	</g>
	<g>
		<g>
			<defs>
				<path id="SVGID_29_" d="M582.465,634.726c1.138,0,1.412,1.02,1.401,1.657H580.9
					C580.979,635.675,581.421,634.726,582.465,634.726 M579.902,637.031c0,1.681,1.043,2.83,2.755,2.83
					c0.892,0,1.521-0.197,1.882-0.361l-0.188-0.72c-0.37,0.152-0.822,0.279-1.552,0.279c-1.021,0-1.89-0.567-1.91-1.946l3.93,0.009
					c0.021-0.115,0.032-0.275,0.032-0.485c0-1.03-0.479-2.642-2.308-2.642C580.91,633.995,579.902,635.329,579.902,637.031"/>
			</defs>
			<use xlink:href="#SVGID_29_"  overflow="visible" fill="#99FFFF"/>
			<clipPath id="SVGID_30_">
				<use xlink:href="#SVGID_29_"  overflow="visible"/>
			</clipPath>
			<rect x="579.902" y="633.995" clip-path="url(#SVGID_30_)" fill="#99FFFF" width="4.949" height="5.866"/>
		</g>
	</g>
	<g>
		<g>
			<defs>
				<path id="SVGID_31_" d="M588.455,639.742h1.018v-5.61h-1.018V639.742z M588.303,632.445c0,0.358,0.256,0.657,0.641,0.657h0.008
					c0.408,0,0.664-0.299,0.664-0.657c0-0.362-0.256-0.651-0.65-0.651S588.303,632.083,588.303,632.445"/>
			</defs>
			<use xlink:href="#SVGID_31_"  overflow="visible" fill="#99FFFF"/>
			<clipPath id="SVGID_32_">
				<use xlink:href="#SVGID_31_"  overflow="visible"/>
			</clipPath>
			<rect x="588.303" y="631.794" clip-path="url(#SVGID_32_)" fill="#99FFFF" width="1.312" height="7.948"/>
		</g>
	</g>
	<g>
		<g>
			<defs>
				<path id="SVGID_33_" d="M592.149,635.792v-3.035c0.174-0.036,0.511-0.079,0.953-0.079c1.11,0,1.839,0.496,1.839,1.539
					c0,1.054-0.73,1.657-1.956,1.657C592.66,635.874,592.371,635.851,592.149,635.792 M591.143,632.036v7.706h1.007v-3.125
					c0.233,0.055,0.511,0.065,0.812,0.065c0.982,0,1.854-0.287,2.388-0.855c0.404-0.406,0.614-0.964,0.614-1.67
					c0-0.694-0.268-1.263-0.697-1.633c-0.462-0.416-1.191-0.65-2.187-0.65C592.266,631.874,591.628,631.946,591.143,632.036"/>
			</defs>
			<use xlink:href="#SVGID_33_"  overflow="visible" fill="#99FFFF"/>
			<clipPath id="SVGID_34_">
				<use xlink:href="#SVGID_33_"  overflow="visible"/>
			</clipPath>
			<rect x="591.143" y="631.874" clip-path="url(#SVGID_34_)" fill="#99FFFF" width="4.819" height="7.868"/>
		</g>
	</g>
	<g>
		<g>
			<defs>
				<path id="SVGID_35_" d="M597.157,631.519v8.224h1.018v-3.381c0-0.198,0.016-0.35,0.074-0.487
					c0.194-0.558,0.708-1.021,1.366-1.021c0.962,0,1.299,0.753,1.299,1.669v3.22h1.02v-3.334c0-1.937-1.205-2.4-1.96-2.4
					c-0.379,0-0.739,0.104-1.04,0.29c-0.315,0.163-0.569,0.428-0.731,0.716h-0.025v-3.495H597.157z"/>
			</defs>
			<use xlink:href="#SVGID_35_"  overflow="visible" fill="#99FFFF"/>
			<clipPath id="SVGID_36_">
				<use xlink:href="#SVGID_35_"  overflow="visible"/>
			</clipPath>
			<rect x="597.157" y="631.519" clip-path="url(#SVGID_36_)" fill="#99FFFF" width="4.774" height="8.224"/>
		</g>
	</g>
	<g>
		<g>
			<defs>
				<path id="SVGID_37_" d="M604.156,636.95c0-1.065,0.523-2.179,1.714-2.179c1.207,0,1.681,1.193,1.681,2.143
					c0,1.276-0.73,2.194-1.699,2.194h-0.017C604.851,639.108,604.156,638.181,604.156,636.95 M603.126,636.987
					c0,1.772,1.181,2.885,2.687,2.885h0.013c1.333,0,2.78-0.904,2.78-2.992c0-1.703-1.086-2.872-2.698-2.872
					C604.364,634.008,603.126,635.107,603.126,636.987"/>
			</defs>
			<use xlink:href="#SVGID_37_"  overflow="visible" fill="#99FFFF"/>
			<clipPath id="SVGID_38_">
				<use xlink:href="#SVGID_37_"  overflow="visible"/>
			</clipPath>
			<rect x="603.126" y="634.008" clip-path="url(#SVGID_38_)" fill="#99FFFF" width="5.478" height="5.866"/>
		</g>
	</g>
	<g>
		<g>
			<defs>
				<path id="SVGID_39_" d="M610.771,635.05h-0.022l-0.06-0.917h-0.902c0.031,0.465,0.045,0.929,0.045,1.522v4.087h1.021v-3.381
					c0-0.164,0.024-0.35,0.072-0.479c0.184-0.567,0.705-1.042,1.363-1.042c0.963,0,1.3,0.764,1.3,1.668v3.231h1.021v-3.346
					c0-1.923-1.207-2.389-1.981-2.389C611.701,634.008,611.052,634.529,610.771,635.05"/>
			</defs>
			<use xlink:href="#SVGID_39_"  overflow="visible" fill="#99FFFF"/>
			<clipPath id="SVGID_40_">
				<use xlink:href="#SVGID_39_"  overflow="visible"/>
			</clipPath>
			<rect x="609.788" y="634.008" clip-path="url(#SVGID_40_)" fill="#99FFFF" width="4.821" height="5.734"/>
		</g>
	</g>
	<g>
		<g>
			<defs>
				<path id="SVGID_41_" d="M618.363,634.726c1.134,0,1.413,1.02,1.403,1.657h-2.969
					C616.88,635.675,617.316,634.726,618.363,634.726 M615.801,637.031c0,1.681,1.043,2.83,2.759,2.83
					c0.891,0,1.518-0.197,1.878-0.361l-0.187-0.72c-0.37,0.152-0.821,0.279-1.553,0.279c-1.02,0-1.888-0.567-1.912-1.946l3.93,0.009
					c0.025-0.115,0.034-0.275,0.034-0.485c0-1.03-0.475-2.642-2.307-2.642C616.811,633.995,615.801,635.329,615.801,637.031"/>
			</defs>
			<use xlink:href="#SVGID_41_"  overflow="visible" fill="#99FFFF"/>
			<clipPath id="SVGID_42_">
				<use xlink:href="#SVGID_41_"  overflow="visible"/>
			</clipPath>
			<rect x="615.801" y="633.995" clip-path="url(#SVGID_42_)" fill="#99FFFF" width="4.949" height="5.866"/>
		</g>
	</g>
	<g>
		<g>
			<defs>
				<path id="SVGID_43_" d="M516.344,651.178c0.279-0.877,0.545-1.819,0.79-2.816c0.23,0.902,0.479,1.84,0.805,2.85l1.85,5.364
					h-5.269L516.344,651.178z M515.503,645.035l-6.87,20.225h3.146l2.051-6.209h6.653l2.11,6.209h3.234l-6.902-20.225H515.503
					L515.503,645.035z"/>
			</defs>
			<use xlink:href="#SVGID_43_"  overflow="visible" fill="#99FFFF"/>
			<clipPath id="SVGID_44_">
				<use xlink:href="#SVGID_43_"  overflow="visible"/>
			</clipPath>
			<rect x="508.633" y="645.035" clip-path="url(#SVGID_44_)" fill="#99FFFF" width="17.193" height="20.225"/>
		</g>
	</g>
	<g>
		<g>
			<defs>
				<path id="SVGID_45_" d="M530.233,660.239c-0.071-0.261-0.109-0.604-0.109-0.992v-2.461c0-0.223,0.051-0.491,0.099-0.757
					c0.016-0.083,0.031-0.164,0.044-0.248c0.457-1.751,1.969-2.969,3.687-2.969c2.73,0,3.951,2.525,3.951,5.028
					c0,3.234-1.557,5.236-4.064,5.236C532.127,663.077,530.647,661.911,530.233,660.239 M529.851,652.612l-0.123-2.012h-2.797
					l0.016,0.255c0.081,1.255,0.12,2.633,0.12,4.615v15.588h3.055v-7.274c0.951,1.135,2.467,1.799,4.184,1.799
					c1.789,0,3.437-0.702,4.637-1.975c1.343-1.413,2.048-3.45,2.048-5.885c0-2.149-0.613-4.007-1.779-5.375
					c-1.14-1.336-2.738-2.071-4.499-2.071C532.632,650.277,530.965,651.081,529.851,652.612"/>
			</defs>
			<use xlink:href="#SVGID_45_"  overflow="visible" fill="#99FFFF"/>
			<clipPath id="SVGID_46_">
				<use xlink:href="#SVGID_45_"  overflow="visible"/>
			</clipPath>
			<rect x="526.933" y="650.277" clip-path="url(#SVGID_46_)" fill="#99FFFF" width="14.059" height="20.781"/>
		</g>
	</g>
	<g>
		<g>
			<defs>
				<path id="SVGID_47_" d="M545.991,660.239c-0.07-0.261-0.108-0.604-0.108-0.992v-2.461c0-0.223,0.048-0.493,0.098-0.758
					c0.015-0.082,0.031-0.163,0.044-0.247c0.456-1.751,1.973-2.969,3.689-2.969c2.726,0,3.948,2.525,3.948,5.028
					c0,3.234-1.561,5.236-4.063,5.236C547.886,663.077,546.402,661.911,545.991,660.239 M545.611,652.612l-0.123-2.012h-2.798
					l0.015,0.255c0.084,1.257,0.119,2.633,0.119,4.615v15.588h3.06v-7.274c0.949,1.135,2.464,1.799,4.183,1.799
					c1.788,0,3.435-0.702,4.638-1.975c1.337-1.413,2.047-3.45,2.047-5.885c0-2.149-0.616-4.007-1.779-5.375
					c-1.141-1.336-2.737-2.071-4.498-2.071C548.391,650.277,546.723,651.081,545.611,652.612"/>
			</defs>
			<use xlink:href="#SVGID_47_"  overflow="visible" fill="#99FFFF"/>
			<clipPath id="SVGID_48_">
				<use xlink:href="#SVGID_47_"  overflow="visible"/>
			</clipPath>
			<rect x="542.69" y="650.277" clip-path="url(#SVGID_48_)" fill="#99FFFF" width="14.062" height="20.781"/>
		</g>
	</g>
	<g>
		<g>
			<defs>
				<path id="SVGID_49_" d="M563.383,650.313c0,2.66,1.707,4.519,5.371,5.85c2.596,0.974,3.565,1.967,3.565,3.67
					c0,1.931-1.491,3.126-3.892,3.126c-1.563,0-3.17-0.455-4.41-1.249l-0.268-0.17l-0.821,2.613l0.153,0.096
					c1.153,0.774,3.327,1.334,5.17,1.334c5.26,0,7.124-3.21,7.124-5.955c0-2.831-1.496-4.579-5.159-6.024
					c-2.86-1.104-3.775-1.974-3.775-3.582c0-1.352,1.075-2.717,3.48-2.717c1.98,0,3.251,0.689,3.592,0.899l0.259,0.164l0.864-2.557
					l-0.174-0.099c-0.51-0.3-1.972-0.999-4.452-0.999C566.109,644.713,563.383,647.016,563.383,650.313"/>
			</defs>
			<use xlink:href="#SVGID_49_"  overflow="visible" fill="#99FFFF"/>
			<clipPath id="SVGID_50_">
				<use xlink:href="#SVGID_49_"  overflow="visible"/>
			</clipPath>
			<rect x="562.932" y="644.714" clip-path="url(#SVGID_50_)" fill="#99FFFF" width="12.446" height="20.869"/>
		</g>
	</g>
	<g>
		<g>
			<defs>
				<path id="SVGID_51_" d="M577.885,648.056v2.545h-2.196v2.444h2.196v7.493c0,1.81,0.348,3.078,1.06,3.881
					c0.681,0.75,1.736,1.164,2.961,1.164c1.156,0,1.979-0.231,2.366-0.366l0.17-0.062l-0.145-2.45l-0.294,0.089
					c-0.385,0.119-0.784,0.165-1.425,0.165c-1.188,0-1.691-0.749-1.691-2.511v-7.404h3.692V650.6h-3.692v-3.486L577.885,648.056z"/>
			</defs>
			<use xlink:href="#SVGID_51_"  overflow="visible" fill="#99FFFF"/>
			<clipPath id="SVGID_52_">
				<use xlink:href="#SVGID_51_"  overflow="visible"/>
			</clipPath>
			<rect x="575.688" y="647.115" clip-path="url(#SVGID_52_)" fill="#99FFFF" width="8.891" height="18.468"/>
		</g>
	</g>
	<g>
		<g>
			<defs>
				<path id="SVGID_53_" d="M587.979,657.961c0-2.623,1.267-5.268,4.095-5.268c2.752,0,4.006,2.685,4.006,5.179
					c0,3.067-1.709,5.293-4.064,5.293h-0.028C589.668,663.165,587.979,660.977,587.979,657.961 M584.891,658.047
					c0,4.438,2.892,7.536,7.035,7.536h0.027c3.503,0,7.272-2.442,7.272-7.8c0-2.179-0.674-4.05-1.951-5.413
					c-1.282-1.37-3.05-2.093-5.113-2.093C587.879,650.277,584.891,653.472,584.891,658.047"/>
			</defs>
			<use xlink:href="#SVGID_53_"  overflow="visible" fill="#99FFFF"/>
			<clipPath id="SVGID_54_">
				<use xlink:href="#SVGID_53_"  overflow="visible"/>
			</clipPath>
			<rect x="584.891" y="650.277" clip-path="url(#SVGID_54_)" fill="#99FFFF" width="14.335" height="15.306"/>
		</g>
	</g>
	<g>
		<g>
			<defs>
				<path id="SVGID_55_" d="M603.82,652.741l-0.093-2.142h-2.747l0.019,0.255c0.08,1.212,0.118,2.571,0.118,4.408l-0.029,9.997
					h3.062v-7.798c0-0.425,0.026-0.827,0.082-1.186c0.347-1.874,1.609-3.086,3.22-3.086c0.313,0,0.56,0.026,0.823,0.056l0.327,0.029
					v-2.855l-0.185-0.047c-0.27-0.07-0.488-0.096-0.762-0.096C606.056,650.277,604.618,651.22,603.82,652.741"/>
			</defs>
			<use xlink:href="#SVGID_55_"  overflow="visible" fill="#99FFFF"/>
			<clipPath id="SVGID_56_">
				<use xlink:href="#SVGID_55_"  overflow="visible"/>
			</clipPath>
			<rect x="600.98" y="650.277" clip-path="url(#SVGID_56_)" fill="#99FFFF" width="7.621" height="14.982"/>
		</g>
	</g>
	<g>
		<g>
			<defs>
				<path id="SVGID_57_" d="M615.276,652.575c0.934,0,1.69,0.29,2.246,0.857c0.882,0.897,1.035,2.217,1.052,2.848h-6.977
					C611.882,654.516,612.988,652.575,615.276,652.575 M608.56,658.163c0,4.489,2.832,7.39,7.212,7.39
					c2.305,0,3.908-0.507,4.847-0.931l0.184-0.084l-0.586-2.279l-0.258,0.104c-0.834,0.341-1.94,0.686-3.834,0.686
					c-1.328,0-4.394-0.438-4.583-4.435l9.877,0.028l0.041-0.195c0.061-0.312,0.092-0.729,0.092-1.278
					c0-3.19-1.588-6.918-6.069-6.918C611.405,650.25,608.56,653.504,608.56,658.163"/>
			</defs>
			<use xlink:href="#SVGID_57_"  overflow="visible" fill="#99FFFF"/>
			<clipPath id="SVGID_58_">
				<use xlink:href="#SVGID_57_"  overflow="visible"/>
			</clipPath>
			<rect x="608.56" y="650.25" clip-path="url(#SVGID_58_)" fill="#99FFFF" width="12.991" height="15.303"/>
		</g>
	</g>
</g>
<g id="Layer_2">
</g>
</svg>
