<?xml version="1.0" encoding="utf-8"?>
<!-- Generator: Adobe Illustrator 15.0.0, SVG Export Plug-In . SVG Version: 6.00 Build 0)  -->
<!DOCTYPE svg PUBLIC "-//W3C//DTD SVG 1.1//EN" "http://www.w3.org/Graphics/SVG/1.1/DTD/svg11.dtd">
<svg version="1.1" id="Layer_1" xmlns="http://www.w3.org/2000/svg" xmlns:xlink="http://www.w3.org/1999/xlink" x="0px" y="0px"
	 width="146.309px" height="80.29px" viewBox="0 0 146.309 80.29" enable-background="new 0 0 146.309 80.29" xml:space="preserve">
<g>
	<path d="M145.125,44.643h-1.865l-8.734,18.171L111.126,7.596c0,0-2.034-6.596-10.059-6.596c-5.344,0-20.871,0-20.871,0
		l20.699,50.575l-5.488,11.238L72.006,7.596c0,0-2.033-6.596-10.054-6.596c-5.348,0-20.872,0-20.872,0l18.076,44.171L50.544,62.82
		L31.918,19.164c0,0-2.036-6.593-10.05-6.593c-5.344,0-20.868,0-20.868,0l27.161,66.515h16.29l0.029-0.061l0.006,0.008l2.864-5.874
		l4.061-8.302l-0.006-0.018l8.593-17.613L73.03,79.086h16.284l0.023-0.061l0.01,0.008l2.864-5.874l4.062-8.302l-0.004-0.018
		l5.465-11.205l10.413,25.451h16.283l0.027-0.061l0.003,0.008l2.725-5.568l4.211-8.607l-0.008-0.018L145.125,44.643z"/>
	<g>
		<path d="M118.863,1.793h-1.167V1.218h2.98v0.575h-1.167v3.687h-0.646V1.793z"/>
		<path d="M121.136,1.218h0.61l1.22,2.778l1.197-2.778h0.611v4.262h-0.646V2.822h-0.013l-0.892,2.047h-0.539l-0.891-2.047h-0.012
			v2.657h-0.646V1.218z"/>
	</g>
</g>
</svg>
